<?xml version="1.0" encoding="UTF-8" standalone="no"?>
<!-- Created with Inkscape (http://www.inkscape.org/) -->

<svg
   width="1807.4314"
   height="371.29089"
   viewBox="0 0 478.21621 98.237385"
   version="1.1"
   id="svg1453"
   xmlns="http://www.w3.org/2000/svg"
   xmlns:svg="http://www.w3.org/2000/svg"
   xmlns:rdf="http://www.w3.org/1999/02/22-rdf-syntax-ns#"
   xmlns:cc="http://creativecommons.org/ns#"
   xmlns:dc="http://purl.org/dc/elements/1.1/">
  <defs
     id="defs1447" />
  <metadata
     id="metadata1450">
    <rdf:RDF>
      <cc:Work
         rdf:about="">
        <dc:format>image/svg+xml</dc:format>
        <dc:type
           rdf:resource="http://purl.org/dc/dcmitype/StillImage" />
      </cc:Work>
    </rdf:RDF>
  </metadata>
  <path
     id="path3663"
     style="fill:none;fill-rule:evenodd;stroke:#cc0000;stroke-width:1.5875;stroke-linecap:round;stroke-linejoin:miter;stroke-miterlimit:4;stroke-dasharray:none;stroke-opacity:1"
     d="m 372.69998,40.351609 c 3.92666,0 5.38762,3.14814 7.92395,8.79144 2.53633,5.64329 3.99729,8.79143 7.92396,8.79143 3.92666,0 5.38762,-3.14814 7.92395,-8.79144 2.53633,-5.64329 3.99729,-8.79144 7.92396,-8.79143 3.92667,0 5.38762,3.14814 7.92395,8.79144 2.53633,5.64329 3.99729,8.79143 7.92396,8.79143 3.92666,0 5.38762,-3.14814 7.92395,-8.79144 2.53633,-5.64329 3.99729,-8.79144 7.92396,-8.79143 3.92666,0 5.38762,3.14814 7.92395,8.79144 2.53633,5.64329 3.99729,8.79143 7.92395,8.79143 3.92667,0 5.38763,-3.14814 7.92396,-8.79144 2.53633,-5.64329 3.99729,-8.79144 7.92396,-8.79143 m -103.01142,8.79143 c 2.53633,-5.64329 3.99729,-8.79144 7.92396,-8.79143" />
  <path
     style="fill:#bbef8b;fill-opacity:1;fill-rule:evenodd;stroke:none;stroke-width:0.264583px;stroke-linecap:butt;stroke-linejoin:miter;stroke-opacity:1"
     d="m 167.53915,45.017859 v 35.20973 h 18.66662 v -35.20973 h 10.10786 l -19.44116,-26.95938 -19.44118,26.95938 h 10.10786"
     id="path3857" />
  <path
     style="fill:none;fill-rule:evenodd;stroke:#dadad6;stroke-width:1.85208;stroke-linecap:round;stroke-linejoin:miter;stroke-miterlimit:4;stroke-dasharray:none;stroke-opacity:1"
     d="m 143.6293,4.9159586 h 66.4863"
     id="path4132" />
  <path
     style="fill:none;fill-rule:evenodd;stroke:#dadad6;stroke-width:1.85208;stroke-linecap:round;stroke-linejoin:miter;stroke-miterlimit:4;stroke-dasharray:none;stroke-opacity:1"
     d="m 143.6293,93.370099 66.4863,2e-5"
     id="path4134" />
  <circle
     style="fill:#4e9a06;fill-opacity:1;stroke:none;stroke-width:2.64583;stroke-linecap:round;stroke-miterlimit:4;stroke-dasharray:none;stroke-opacity:1"
     id="path4487"
     cx="176.8725"
     cy="4.9159503"
     r="3.0079265" />
  <circle
     style="fill:#4e9a06;fill-opacity:1;stroke:none;stroke-width:2.64583;stroke-linecap:round;stroke-miterlimit:4;stroke-dasharray:none;stroke-opacity:1"
     id="circle4658"
     cx="176.8725"
     cy="93.370117"
     r="3.0079265" />
  <text
     xml:space="preserve"
     style="font-size:10.5833px;line-height:125%;font-family:sans-serif;letter-spacing:0px;word-spacing:0px;fill:#000000;fill-opacity:1;stroke:none;stroke-width:0.264583px;stroke-linecap:butt;stroke-linejoin:miter;stroke-opacity:1"
     x="129.67004"
     y="7.7152667"
     id="text6974"><tspan
       id="tspan6972"
       style="fill:#000000;fill-opacity:1;stroke:none;stroke-width:0.264583px"
       x="129.67004"
       y="7.7152667"><tspan
         style="font-style:italic;font-variant:normal;font-weight:normal;font-stretch:normal;font-family:sans-serif;-inkscape-font-specification:'sans-serif Italic'"
         id="tspan10880">E</tspan><tspan
         style="font-size:65%;baseline-shift:sub;fill:#000000;fill-opacity:1;stroke:none"
         id="tspan7614">2</tspan></tspan></text>
  <text
     xml:space="preserve"
     style="font-size:10.5833px;line-height:125%;font-family:sans-serif;letter-spacing:0px;word-spacing:0px;fill:#000000;fill-opacity:1;stroke:none;stroke-width:0.264583px;stroke-linecap:butt;stroke-linejoin:miter;stroke-opacity:1"
     x="129.58105"
     y="96.120728"
     id="text11254"><tspan
       id="tspan11252"
       style="fill:#000000;fill-opacity:1;stroke:none;stroke-width:0.264583px"
       x="129.58105"
       y="96.120728"><tspan
         style="font-style:italic;font-variant:normal;font-weight:normal;font-stretch:normal;font-family:sans-serif;-inkscape-font-specification:'sans-serif Italic'"
         id="tspan11248">E</tspan><tspan
         id="tspan12204"
         style="font-style:normal;font-variant:normal;font-weight:normal;font-stretch:normal;font-size:65%;font-family:sans-serif;-inkscape-font-specification:sans-serif;baseline-shift:sub">1</tspan></tspan></text>
  <path
     style="fill:#cc0000;fill-opacity:1;fill-rule:evenodd;stroke:none;stroke-width:0.264583;stroke-linecap:butt;stroke-linejoin:miter;stroke-miterlimit:4;stroke-dasharray:none;stroke-opacity:1"
     d="m 467.78742,35.958949 v 8.78533 l 10.42882,-4.39267 -10.42882,-4.39266"
     id="path12983" />
  <path
     style="fill:#bbef8b;fill-opacity:1;fill-rule:evenodd;stroke:none;stroke-width:0.264583px;stroke-linecap:butt;stroke-linejoin:miter;stroke-opacity:1"
     d="m 303.23176,53.268219 v -35.20973 h 18.66662 v 35.20973 h 10.10786 l -19.44116,26.95938 -19.44118,-26.95938 h 10.10786"
     id="path13448" />
  <path
     style="fill:none;fill-rule:evenodd;stroke:#dadad6;stroke-width:1.85208;stroke-linecap:round;stroke-linejoin:miter;stroke-miterlimit:4;stroke-dasharray:none;stroke-opacity:1"
     d="m 279.32191,4.9159686 h 66.4863"
     id="path13450" />
  <path
     style="fill:none;fill-rule:evenodd;stroke:#dadad6;stroke-width:1.85208;stroke-linecap:round;stroke-linejoin:miter;stroke-miterlimit:4;stroke-dasharray:none;stroke-opacity:1"
     d="m 279.32191,93.370109 66.4863,2e-5"
     id="path13452" />
  <circle
     style="fill:#4e9a06;fill-opacity:1;stroke:none;stroke-width:2.64583;stroke-linecap:round;stroke-miterlimit:4;stroke-dasharray:none;stroke-opacity:1"
     id="circle13454"
     cx="312.56512"
     cy="4.9159503"
     r="3.0079265" />
  <circle
     style="fill:#4e9a06;fill-opacity:1;stroke:none;stroke-width:2.64583;stroke-linecap:round;stroke-miterlimit:4;stroke-dasharray:none;stroke-opacity:1"
     id="circle13456"
     cx="312.56512"
     cy="93.370117"
     r="3.0079265" />
  <text
     xml:space="preserve"
     style="font-size:10.5833px;line-height:125%;font-family:sans-serif;letter-spacing:0px;word-spacing:0px;fill:#000000;fill-opacity:1;stroke:none;stroke-width:0.264583px;stroke-linecap:butt;stroke-linejoin:miter;stroke-opacity:1"
     x="265.36267"
     y="7.7152667"
     id="text13464"><tspan
       id="tspan13462"
       style="fill:#000000;fill-opacity:1;stroke:none;stroke-width:0.264583px"
       x="265.36267"
       y="7.7152667"><tspan
         style="font-style:italic;font-variant:normal;font-weight:normal;font-stretch:normal;font-family:sans-serif;-inkscape-font-specification:'sans-serif Italic'"
         id="tspan13458">E</tspan><tspan
         style="font-size:65%;baseline-shift:sub;fill:#000000;fill-opacity:1;stroke:none"
         id="tspan13460">2</tspan></tspan></text>
  <text
     xml:space="preserve"
     style="font-size:10.5833px;line-height:125%;font-family:sans-serif;letter-spacing:0px;word-spacing:0px;fill:#000000;fill-opacity:1;stroke:none;stroke-width:0.264583px;stroke-linecap:butt;stroke-linejoin:miter;stroke-opacity:1"
     x="265.27368"
     y="96.120728"
     id="text13472"><tspan
       id="tspan13470"
       style="fill:#000000;fill-opacity:1;stroke:none;stroke-width:0.264583px"
       x="265.27368"
       y="96.120728"><tspan
         style="font-style:italic;font-variant:normal;font-weight:normal;font-stretch:normal;font-family:sans-serif;-inkscape-font-specification:'sans-serif Italic'"
         id="tspan13466">E</tspan><tspan
         id="tspan13468"
         style="font-style:normal;font-variant:normal;font-weight:normal;font-stretch:normal;font-size:65%;font-family:sans-serif;-inkscape-font-specification:sans-serif;baseline-shift:sub">1</tspan></tspan></text>
  <path
     id="path156"
     style="fill:none;fill-rule:evenodd;stroke:#cc0000;stroke-width:1.5875;stroke-linecap:round;stroke-linejoin:miter;stroke-miterlimit:4;stroke-dasharray:none;stroke-opacity:1"
     d="m 372.69998,40.351609 c 3.92666,0 5.38762,3.14814 7.92395,8.79144 2.53633,5.64329 3.99729,8.79143 7.92396,8.79143 3.92666,0 5.38762,-3.14814 7.92395,-8.79144 2.53633,-5.64329 3.99729,-8.79144 7.92396,-8.79143 3.92667,0 5.38762,3.14814 7.92395,8.79144 2.53633,5.64329 3.99729,8.79143 7.92396,8.79143 3.92666,0 5.38762,-3.14814 7.92395,-8.79144 2.53633,-5.64329 3.99729,-8.79144 7.92396,-8.79143 3.92666,0 5.38762,3.14814 7.92395,8.79144 2.53633,5.64329 3.99729,8.79143 7.92395,8.79143 3.92667,0 5.38763,-3.14814 7.92396,-8.79144 2.53633,-5.64329 3.99729,-8.79144 7.92396,-8.79143 m -103.01142,8.79143 c 2.53633,-5.64329 3.99729,-8.79144 7.92396,-8.79143" />
  <path
     id="path238"
     style="fill:none;fill-rule:evenodd;stroke:#cc0000;stroke-width:1.5875;stroke-linecap:round;stroke-linejoin:miter;stroke-miterlimit:4;stroke-dasharray:none;stroke-opacity:1"
     d="m 8.71771,40.351607 c 3.92666,0 5.38762,3.14814 7.92395,8.79144 2.53633,5.64329 3.99729,8.79143 7.92396,8.79143 3.92666,0 5.38762,-3.14814 7.92395,-8.79144 2.53633,-5.64329 3.99729,-8.79144 7.92396,-8.79143 3.92667,0 5.38762,3.14814 7.92395,8.79144 2.53633,5.64329 3.99729,8.79143 7.92396,8.79143 3.92666,0 5.38762,-3.14814 7.92395,-8.79144 2.53633,-5.64329 3.99729,-8.79144 7.92396,-8.79143 3.92666,0 5.38762,3.14814 7.92395,8.79144 2.53633,5.64329 3.99729,8.79143 7.92395,8.79143 3.92667,0 5.38763,-3.14814 7.92396,-8.79144 2.53633,-5.64329 3.99729,-8.79144 7.92396,-8.79143 M 0.79374999,49.143037 C 3.33008,43.499747 4.79104,40.351597 8.71771,40.351607" />
  <path
     style="fill:#cc0000;fill-opacity:1;fill-rule:evenodd;stroke:none;stroke-width:0.264583;stroke-linecap:butt;stroke-linejoin:miter;stroke-miterlimit:4;stroke-dasharray:none;stroke-opacity:1"
     d="m 103.80515,35.958947 v 8.78533 l 10.42882,-4.39267 -10.42882,-4.39266"
     id="path240" />
  <path
     id="path242"
     style="fill:none;fill-rule:evenodd;stroke:#cc0000;stroke-width:1.5875;stroke-linecap:round;stroke-linejoin:miter;stroke-miterlimit:4;stroke-dasharray:none;stroke-opacity:1"
     d="m 8.71771,40.351607 c 3.92666,0 5.38762,3.14814 7.92395,8.79144 2.53633,5.64329 3.99729,8.79143 7.92396,8.79143 3.92666,0 5.38762,-3.14814 7.92395,-8.79144 2.53633,-5.64329 3.99729,-8.79144 7.92396,-8.79143 3.92667,0 5.38762,3.14814 7.92395,8.79144 2.53633,5.64329 3.99729,8.79143 7.92396,8.79143 3.92666,0 5.38762,-3.14814 7.92395,-8.79144 2.53633,-5.64329 3.99729,-8.79144 7.92396,-8.79143 3.92666,0 5.38762,3.14814 7.92395,8.79144 2.53633,5.64329 3.99729,8.79143 7.92395,8.79143 3.92667,0 5.38763,-3.14814 7.92396,-8.79144 2.53633,-5.64329 3.99729,-8.79144 7.92396,-8.79143 M 0.79374999,49.143037 C 3.33008,43.499747 4.79104,40.351597 8.71771,40.351607" />
</svg>
