<?xml version="1.0" encoding="UTF-8" standalone="no"?>
<!-- Created with Inkscape (http://www.inkscape.org/) -->

<svg
   width="1720"
   height="410"
   viewBox="0 0 455.08332 108.47917"
   version="1.1"
   id="svg5"
   xmlns="http://www.w3.org/2000/svg"
   xmlns:svg="http://www.w3.org/2000/svg">
  <defs
     id="defs2">
    <marker
       style="overflow:visible"
       id="TriangleOutL"
       refX="0"
       refY="0"
       orient="auto">
      <path
         transform="scale(0.8)"
         style="fill:context-stroke;fill-rule:evenodd;stroke:context-stroke;stroke-width:1pt"
         d="M 5.77,0 -2.88,5 V -5 Z"
         id="path25016" />
    </marker>
  </defs>
  <g
     id="layer1"
     transform="translate(-20.385461,-6.297565)">
    <g
       id="g57072"
       transform="translate(0.99258074,0.86756261)">
      <g
         id="g59886">
        <path
           id="rect870"
           style="fill:none;stroke:#000000;stroke-width:1.02411"
           d="M 20.897516,37.138058 H 39.873404 V 56.113945 H 20.897516 Z" />
        <g
           aria-label="h"
           id="text14172"
           style="font-size:19.4028px;line-height:125%;letter-spacing:0px;word-spacing:0px;stroke-width:0.504765px">
          <path
             d="M 26.883254,53.349072 V 40.174571 l 1.610432,-0.27164 v 4.579061 q 0.388056,-0.155222 0.873126,-0.232834 0.48507,-0.09701 0.950738,-0.09701 1.028348,0 1.707446,0.310445 0.698501,0.291042 1.10596,0.834321 0.407458,0.543278 0.582084,1.299987 0.174625,0.756709 0.174625,1.668641 v 5.083534 h -1.59103 v -4.734284 q 0,-1.66864 -0.465667,-2.347738 -0.465667,-0.698501 -1.668641,-0.698501 -0.504473,0 -0.989543,0.116417 -0.465667,0.09701 -0.679098,0.194028 v 7.470078 z"
             style="font-family:'Ubuntu Mono';-inkscape-font-specification:'Ubuntu Mono'"
             id="path59508" />
        </g>
        <path
           id="rect17976"
           style="fill:none;stroke:#000000;stroke-width:1.02411"
           d="M 39.873405,37.138058 H 58.849293 V 56.113945 H 39.873405 Z" />
        <g
           aria-label="e"
           id="text17980"
           style="font-size:19.4028px;line-height:125%;letter-spacing:0px;word-spacing:0px;stroke-width:0.504765px">
          <path
             d="m 49.50687,44.132742 q 1.823863,0 2.813406,1.144765 0.989542,1.125362 0.989542,3.434295 v 0.562682 h -6.441729 q 0.09701,1.397001 0.911931,2.134308 0.834321,0.717903 2.328336,0.717903 0.853724,0 1.45521,-0.135819 0.601487,-0.13582 0.911932,-0.291042 l 0.213431,1.358196 q -0.291042,0.155222 -1.047751,0.329847 -0.75671,0.174625 -1.707447,0.174625 -1.164168,0 -2.056697,-0.34925 -0.873126,-0.368653 -1.45521,-0.989543 -0.582084,-0.620889 -0.873126,-1.474613 -0.291042,-0.873126 -0.291042,-1.882071 0,-1.202974 0.368654,-2.095503 0.368653,-0.892528 0.97014,-1.474612 0.601486,-0.582084 1.358196,-0.873126 0.756709,-0.291042 1.552224,-0.291042 z m 2.173113,3.841754 q 0,-1.144765 -0.601487,-1.80446 -0.601486,-0.679098 -1.591029,-0.679098 -0.562681,0 -1.028349,0.21343 -0.446264,0.213431 -0.776112,0.562682 -0.329847,0.34925 -0.523875,0.795514 -0.194028,0.446265 -0.252237,0.911932 z"
             style="font-family:'Ubuntu Mono';-inkscape-font-specification:'Ubuntu Mono'"
             id="path59512" />
        </g>
        <path
           id="rect19514"
           style="fill:none;stroke:#000000;stroke-width:1.02411"
           d="M 58.849293,37.138058 H 77.82518 V 56.113945 H 58.849293 Z" />
        <g
           aria-label="l"
           id="text19518"
           style="font-size:19.4028px;line-height:125%;letter-spacing:0px;word-spacing:0px;stroke-width:0.504765px">
          <path
             d="m 70.015578,53.562502 q -0.853723,0 -1.416404,-0.232833 -0.562681,-0.232834 -0.892529,-0.698501 -0.329848,-0.465667 -0.465667,-1.144765 -0.13582,-0.698501 -0.13582,-1.610433 v -8.517829 h -2.599975 v -1.358196 h 4.191005 v 9.876025 q 0,0.679098 0.07761,1.10596 0.09701,0.426862 0.271639,0.698501 0.194028,0.252236 0.465667,0.34925 0.271639,0.09701 0.640293,0.09701 0.562681,0 1.047751,-0.135819 0.48507,-0.13582 0.756709,-0.291042 l 0.232834,1.358196 q -0.116417,0.05821 -0.329848,0.155222 -0.213431,0.07761 -0.504473,0.155222 -0.291042,0.07761 -0.640292,0.13582 -0.329848,0.05821 -0.698501,0.05821 z"
             style="font-family:'Ubuntu Mono';-inkscape-font-specification:'Ubuntu Mono'"
             id="path59516" />
        </g>
        <path
           id="rect20392"
           style="fill:none;stroke:#000000;stroke-width:1.02411"
           d="M 77.82518,37.138058 H 96.801067 V 56.113945 H 77.82518 Z" />
        <g
           aria-label="l"
           id="text20396"
           style="font-size:19.4028px;line-height:125%;letter-spacing:0px;word-spacing:0px;stroke-width:0.504765px">
          <path
             d="m 88.991465,53.562502 q -0.853723,0 -1.416404,-0.232833 -0.562681,-0.232834 -0.892529,-0.698501 -0.329847,-0.465667 -0.465667,-1.144765 -0.13582,-0.698501 -0.13582,-1.610433 V 41.358141 H 83.48107 v -1.358196 h 4.191005 v 9.876025 q 0,0.679098 0.07761,1.10596 0.09701,0.426862 0.271639,0.698501 0.194028,0.252236 0.465668,0.34925 0.271639,0.09701 0.640292,0.09701 0.562681,0 1.047751,-0.135819 0.48507,-0.13582 0.756709,-0.291042 l 0.232834,1.358196 q -0.116417,0.05821 -0.329848,0.155222 -0.21343,0.07761 -0.504472,0.155222 -0.291042,0.07761 -0.640293,0.13582 -0.329847,0.05821 -0.698501,0.05821 z"
             style="font-family:'Ubuntu Mono';-inkscape-font-specification:'Ubuntu Mono'"
             id="path59520" />
        </g>
        <path
           id="rect20398"
           style="fill:none;stroke:#000000;stroke-width:1.02411"
           d="M 96.801071,37.138058 H 115.77696 V 56.113945 H 96.801071 Z" />
        <g
           aria-label="o"
           id="text20402"
           style="font-size:19.4028px;line-height:125%;letter-spacing:0px;word-spacing:0px;stroke-width:0.504765px">
          <path
             d="m 110.3345,48.847622 q 0,1.067154 -0.31045,1.94028 -0.29104,0.853723 -0.83432,1.474613 -0.54328,0.620889 -1.29998,0.97014 -0.75671,0.329847 -1.64924,0.329847 -0.87313,0 -1.62984,-0.329847 -0.7373,-0.349251 -1.28058,-0.97014 -0.54328,-0.62089 -0.85373,-1.474613 -0.29104,-0.873126 -0.29104,-1.94028 0,-1.067154 0.29104,-1.94028 0.31045,-0.873126 0.85373,-1.474613 0.54328,-0.620889 1.28058,-0.950737 0.75671,-0.34925 1.62984,-0.34925 0.89253,0 1.64924,0.34925 0.7567,0.329848 1.29998,0.950737 0.54328,0.601487 0.83432,1.474613 0.31045,0.873126 0.31045,1.94028 z m -1.64924,0 q 0,-1.532821 -0.6597,-2.405947 -0.65969,-0.892529 -1.78505,-0.892529 -1.10596,0 -1.76566,0.892529 -0.64029,0.873126 -0.64029,2.405947 0,1.513418 0.64029,2.405947 0.6597,0.873126 1.76566,0.873126 1.12536,0 1.78505,-0.873126 0.6597,-0.892529 0.6597,-2.405947 z"
             style="font-family:'Ubuntu Mono';-inkscape-font-specification:'Ubuntu Mono'"
             id="path59524" />
        </g>
        <path
           id="rect21422"
           style="fill:none;stroke:#000000;stroke-width:1.02411"
           d="m 115.77696,37.138058 h 18.97589 v 18.975887 h -18.97589 z" />
        <g
           aria-label="0"
           id="text21426"
           style="font-size:19.4028px;line-height:125%;letter-spacing:0px;word-spacing:0px;fill:#fcaf3e;stroke-width:0.504765px">
          <path
             d="m 126.36116,47.120773 q 0,0.504473 -0.31044,0.873126 -0.29104,0.368653 -0.77611,0.368653 -0.50448,0 -0.81492,-0.368653 -0.31045,-0.368653 -0.31045,-0.873126 0,-0.504473 0.31045,-0.892529 0.31044,-0.388056 0.81492,-0.388056 0.48507,0 0.77611,0.388056 0.31044,0.388056 0.31044,0.892529 z m -5.08353,0.213431 q 0,-3.026837 1.02835,-4.637269 1.04775,-1.629836 2.92982,-1.629836 1.90148,0 2.92982,1.629836 1.02835,1.610432 1.02835,4.637269 0,3.026836 -1.02835,4.656672 -1.02834,1.610432 -2.92982,1.610432 -1.88207,0 -2.92982,-1.610432 -1.02835,-1.629836 -1.02835,-4.656672 z m 6.28651,0 q 0,-0.989543 -0.11642,-1.862669 -0.11642,-0.892529 -0.38806,-1.552224 -0.27163,-0.659695 -0.7179,-1.047751 -0.44626,-0.388056 -1.10596,-0.388056 -0.65969,0 -1.10596,0.388056 -0.44626,0.388056 -0.7179,1.047751 -0.27164,0.659695 -0.38806,1.552224 -0.11641,0.873126 -0.11641,1.862669 0,0.989542 0.11641,1.882071 0.11642,0.873126 0.38806,1.532821 0.27164,0.659696 0.7179,1.047752 0.44627,0.388056 1.10596,0.388056 0.6597,0 1.10596,-0.388056 0.44627,-0.388056 0.7179,-1.047752 0.27164,-0.659695 0.38806,-1.532821 0.11642,-0.892529 0.11642,-1.882071 z"
             style="font-family:'Ubuntu Mono';-inkscape-font-specification:'Ubuntu Mono'"
             id="path59528" />
        </g>
        <path
           id="rect23254"
           style="fill:none;stroke:#000000;stroke-width:1.02411"
           d="m 134.75285,37.138058 h 18.97589 v 18.975887 h -18.97589 z" />
        <g
           aria-label="0"
           id="text23258"
           style="font-size:19.4028px;line-height:125%;letter-spacing:0px;word-spacing:0px;fill:#fcaf3e;stroke-width:0.504765px">
          <path
             d="m 145.33705,47.120773 q 0,0.504473 -0.31044,0.873126 -0.29104,0.368653 -0.77611,0.368653 -0.50447,0 -0.81492,-0.368653 -0.31044,-0.368653 -0.31044,-0.873126 0,-0.504473 0.31044,-0.892529 0.31045,-0.388056 0.81492,-0.388056 0.48507,0 0.77611,0.388056 0.31044,0.388056 0.31044,0.892529 z m -5.08353,0.213431 q 0,-3.026837 1.02835,-4.637269 1.04775,-1.629836 2.92982,-1.629836 1.90148,0 2.92983,1.629836 1.02834,1.610432 1.02834,4.637269 0,3.026836 -1.02834,4.656672 -1.02835,1.610432 -2.92983,1.610432 -1.88207,0 -2.92982,-1.610432 -1.02835,-1.629836 -1.02835,-4.656672 z m 6.28651,0 q 0,-0.989543 -0.11642,-1.862669 -0.11642,-0.892529 -0.38805,-1.552224 -0.27164,-0.659695 -0.71791,-1.047751 -0.44626,-0.388056 -1.10596,-0.388056 -0.65969,0 -1.10596,0.388056 -0.44626,0.388056 -0.7179,1.047751 -0.27164,0.659695 -0.38806,1.552224 -0.11641,0.873126 -0.11641,1.862669 0,0.989542 0.11641,1.882071 0.11642,0.873126 0.38806,1.532821 0.27164,0.659696 0.7179,1.047752 0.44627,0.388056 1.10596,0.388056 0.6597,0 1.10596,-0.388056 0.44627,-0.388056 0.71791,-1.047752 0.27163,-0.659695 0.38805,-1.532821 0.11642,-0.892529 0.11642,-1.882071 z"
             style="font-family:'Ubuntu Mono';-inkscape-font-specification:'Ubuntu Mono'"
             id="path59532" />
        </g>
        <path
           id="rect23260"
           style="fill:none;stroke:#000000;stroke-width:1.02411"
           d="m 153.72874,37.138058 h 18.97589 v 18.975887 h -18.97589 z" />
        <g
           aria-label="0"
           id="text23264"
           style="font-size:19.4028px;line-height:125%;letter-spacing:0px;word-spacing:0px;fill:#fcaf3e;stroke-width:0.504765px">
          <path
             d="m 164.31295,47.120773 q 0,0.504473 -0.31045,0.873126 -0.29104,0.368653 -0.77611,0.368653 -0.50447,0 -0.81492,-0.368653 -0.31044,-0.368653 -0.31044,-0.873126 0,-0.504473 0.31044,-0.892529 0.31045,-0.388056 0.81492,-0.388056 0.48507,0 0.77611,0.388056 0.31045,0.388056 0.31045,0.892529 z m -5.08354,0.213431 q 0,-3.026837 1.02835,-4.637269 1.04775,-1.629836 2.92982,-1.629836 1.90148,0 2.92983,1.629836 1.02834,1.610432 1.02834,4.637269 0,3.026836 -1.02834,4.656672 -1.02835,1.610432 -2.92983,1.610432 -1.88207,0 -2.92982,-1.610432 -1.02835,-1.629836 -1.02835,-4.656672 z m 6.28651,0 q 0,-0.989543 -0.11642,-1.862669 -0.11641,-0.892529 -0.38805,-1.552224 -0.27164,-0.659695 -0.71791,-1.047751 -0.44626,-0.388056 -1.10596,-0.388056 -0.65969,0 -1.10596,0.388056 -0.44626,0.388056 -0.7179,1.047751 -0.27164,0.659695 -0.38806,1.552224 -0.11641,0.873126 -0.11641,1.862669 0,0.989542 0.11641,1.882071 0.11642,0.873126 0.38806,1.532821 0.27164,0.659696 0.7179,1.047752 0.44627,0.388056 1.10596,0.388056 0.6597,0 1.10596,-0.388056 0.44627,-0.388056 0.71791,-1.047752 0.27164,-0.659695 0.38805,-1.532821 0.11642,-0.892529 0.11642,-1.882071 z"
             style="font-family:'Ubuntu Mono';-inkscape-font-specification:'Ubuntu Mono'"
             id="path59536" />
        </g>
        <path
           id="rect23266"
           style="fill:none;stroke:#000000;stroke-width:1.02411"
           d="m 172.70464,37.138058 h 18.97588 v 18.975887 h -18.97588 z" />
        <g
           aria-label="1"
           id="text23270"
           style="font-size:19.4028px;line-height:125%;letter-spacing:0px;word-spacing:0px;fill:#fcaf3e;stroke-width:0.504765px">
          <path
             d="m 178.76798,43.822297 q 0.98955,-0.388056 1.92088,-0.97014 0.93134,-0.601487 1.72685,-1.513418 h 1.12536 v 10.652137 h 2.27013 v 1.358196 h -6.46113 v -1.358196 h 2.59997 v -8.420815 q -0.21343,0.194027 -0.52387,0.407458 -0.29104,0.194028 -0.6597,0.388056 -0.34925,0.194028 -0.7373,0.368653 -0.38806,0.174626 -0.75671,0.291042 z"
             style="font-family:'Ubuntu Mono';-inkscape-font-specification:'Ubuntu Mono'"
             id="path59540" />
        </g>
        <path
           style="fill:none;fill-rule:evenodd;stroke:#555753;stroke-width:1.05833;stroke-linecap:butt;stroke-linejoin:miter;stroke-miterlimit:4;stroke-dasharray:none;stroke-opacity:1;marker-end:url(#TriangleOutL)"
           d="m 201.16846,46.625991 86.64177,10e-7"
           id="path24774" />
        <g
           id="g25719"
           transform="translate(12.687867,45.733082)">
          <path
             style="fill:none;fill-rule:evenodd;stroke:#ef2929;stroke-width:2.64583;stroke-linecap:round;stroke-linejoin:miter;stroke-miterlimit:4;stroke-dasharray:none;stroke-opacity:1"
             d="M 289.79767,-5.6943473 300.75565,7.4801663"
             id="path25715" />
          <path
             style="fill:none;fill-rule:evenodd;stroke:#ef2929;stroke-width:2.64583;stroke-linecap:round;stroke-linejoin:miter;stroke-miterlimit:4;stroke-dasharray:none;stroke-opacity:1"
             d="M 288.69081,6.4229098 302.04132,-4.2948087"
             id="path25717" />
        </g>
        <g
           aria-label="no"
           id="text27153"
           style="font-size:14.1111px;line-height:125%;letter-spacing:0px;word-spacing:0px;fill:none;stroke:#000000;stroke-width:0.264583px">
          <path
             d="m 319.65297,43.168774 q 0.45155,-0.112888 1.19944,-0.239888 0.74789,-0.127 1.72155,-0.127 0.87489,0 1.45345,0.254 0.57855,0.239888 0.91722,0.691443 0.35278,0.437445 0.49389,1.058333 0.14111,0.620888 0.14111,1.368777 v 4.120441 h -1.31233 v -3.838219 q 0,-0.677333 -0.0988,-1.157111 -0.0847,-0.479777 -0.29633,-0.77611 -0.21167,-0.296333 -0.56445,-0.423333 -0.35278,-0.141111 -0.87489,-0.141111 -0.21166,0 -0.43744,0.01411 -0.22578,0.01411 -0.43745,0.04233 -0.19755,0.01411 -0.36688,0.04233 -0.15523,0.02822 -0.22578,0.04233 v 6.194773 h -1.31233 z"
             style="font-family:Ubuntu;-inkscape-font-specification:Ubuntu;fill:#000000;stroke:none"
             id="path59543" />
          <path
             d="m 334.22972,46.625994 q 0,0.874888 -0.254,1.580443 -0.254,0.705555 -0.71966,1.213555 -0.45156,0.507999 -1.08656,0.790221 -0.635,0.268111 -1.38288,0.268111 -0.74789,0 -1.38289,-0.268111 -0.635,-0.282222 -1.10067,-0.790221 -0.45155,-0.508 -0.70555,-1.213555 -0.254,-0.705555 -0.254,-1.580443 0,-0.860777 0.254,-1.566332 0.254,-0.719666 0.70555,-1.227666 0.46567,-0.508 1.10067,-0.77611 0.635,-0.282222 1.38289,-0.282222 0.74788,0 1.38288,0.282222 0.635,0.26811 1.08656,0.77611 0.46566,0.508 0.71966,1.227666 0.254,0.705555 0.254,1.566332 z m -1.36877,0 q 0,-1.241777 -0.56445,-1.961443 -0.55033,-0.733777 -1.50988,-0.733777 -0.95956,0 -1.524,0.733777 -0.55034,0.719666 -0.55034,1.961443 0,1.241777 0.55034,1.975554 0.56444,0.719666 1.524,0.719666 0.95955,0 1.50988,-0.719666 0.56445,-0.733777 0.56445,-1.975554 z"
             style="font-family:Ubuntu;-inkscape-font-specification:Ubuntu;fill:#000000;stroke:none"
             id="path59545" />
        </g>
        <path
           style="fill:none;fill-rule:evenodd;stroke:#555753;stroke-width:1.05833;stroke-linecap:butt;stroke-linejoin:miter;stroke-miterlimit:4;stroke-dasharray:none;stroke-opacity:1"
           d="m 24.885482,24.497602 v -5.14171 h 86.903498 v 5.14171"
           id="path37947" />
        <path
           style="fill:none;fill-rule:evenodd;stroke:#555753;stroke-width:1.05833;stroke-linecap:butt;stroke-linejoin:miter;stroke-miterlimit:4;stroke-dasharray:none;stroke-opacity:1"
           d="M 68.337236,19.355892 V 15.957361"
           id="path37951" />
        <g
           aria-label="message"
           id="text39157"
           style="font-size:10.5833px;line-height:125%;letter-spacing:0px;word-spacing:0px;stroke-width:0.264583px">
          <path
             d="m 49.860387,9.6616986 q 0.356567,-0.6407857 0.852659,-0.9456757 0.496092,-0.30489 1.167884,-0.30489 0.904334,0 1.395259,0.6356181 0.490924,0.6304505 0.490924,1.798334 v 3.493316 h -0.956011 v -3.46231 q 0,-0.831988 -0.294554,-1.2350629 -0.294555,-0.4030749 -0.899167,-0.4030749 -0.738971,0 -1.167884,0.4909246 -0.428913,0.4909242 -0.428913,1.3384152 v 3.271108 h -0.956011 v -3.46231 q 0,-0.837156 -0.294555,-1.2350629 -0.294555,-0.4030749 -0.909502,-0.4030749 -0.728635,0 -1.157549,0.4960922 -0.428913,0.4909246 -0.428913,1.3332476 v 3.271108 h -0.95601 V 8.5506589 h 0.95601 v 0.899167 q 0.325561,-0.5322655 0.780312,-0.7854793 0.454751,-0.2532137 1.080034,-0.2532137 0.630451,0 1.069699,0.3203929 0.444416,0.3203928 0.656288,0.9301728 z"
             id="path59548" />
          <path
             d="m 60.614219,11.206819 v 0.465086 h -4.371812 q 0.06201,0.98185 0.589109,1.498612 0.532266,0.511595 1.477942,0.511595 0.547768,0 1.059363,-0.134358 0.516763,-0.134358 1.02319,-0.403075 v 0.899167 q -0.511595,0.21704 -1.049028,0.330728 -0.537433,0.113688 -1.090369,0.113688 -1.384924,0 -2.196242,-0.80615 -0.806149,-0.80615 -0.806149,-2.180738 0,-1.421098 0.764808,-2.2530855 0.769977,-0.8371556 2.072219,-0.8371556 1.167883,0 1.844842,0.7544735 0.682127,0.7493059 0.682127,2.0412126 z m -0.950843,-0.279052 q -0.01033,-0.780311 -0.439248,-1.2453979 -0.423746,-0.4650864 -1.126543,-0.4650864 -0.795815,0 -1.276404,0.4495835 -0.475422,0.4495838 -0.547768,1.2660688 z"
             id="path59550" />
          <path
             d="M 65.864528,8.7211905 V 9.6203576 Q 65.461453,9.4136525 65.027372,9.3103 64.593292,9.2069475 64.128205,9.2069475 q -0.707965,0 -1.064531,0.2170403 -0.351399,0.2170403 -0.351399,0.6511212 0,0.330728 0.253214,0.52193 0.253214,0.186035 1.018023,0.356566 l 0.32556,0.07235 q 1.012855,0.21704 1.4366,0.614948 0.428913,0.392739 0.428913,1.100704 0,0.80615 -0.640785,1.276404 -0.635618,0.470254 -1.751826,0.470254 -0.465086,0 -0.971514,-0.09302 -0.50126,-0.08785 -1.059363,-0.268717 v -0.981849 q 0.527098,0.273884 1.038693,0.41341 0.511595,0.134358 1.012855,0.134358 0.671791,0 1.033525,-0.227375 0.361734,-0.232543 0.361734,-0.651121 0,-0.387572 -0.263549,-0.594277 -0.258381,-0.206705 -1.142046,-0.397907 l -0.330728,-0.07752 q -0.883664,-0.186034 -1.276404,-0.568439 -0.392739,-0.387572 -0.392739,-1.059363 0,-0.8164853 0.578774,-1.2609012 0.578774,-0.4444159 1.643305,-0.4444159 0.527098,0 0.992185,0.077514 0.465086,0.077514 0.857826,0.2325432 z"
             id="path59552" />
          <path
             d="M 71.378387,8.7211905 V 9.6203576 Q 70.975312,9.4136525 70.541231,9.3103 70.10715,9.2069475 69.642064,9.2069475 q -0.707965,0 -1.064531,0.2170403 -0.351399,0.2170403 -0.351399,0.6511212 0,0.330728 0.253214,0.52193 0.253214,0.186035 1.018022,0.356566 l 0.325561,0.07235 q 1.012855,0.21704 1.4366,0.614948 0.428913,0.392739 0.428913,1.100704 0,0.80615 -0.640786,1.276404 -0.635618,0.470254 -1.751825,0.470254 -0.465086,0 -0.971514,-0.09302 -0.50126,-0.08785 -1.059363,-0.268717 v -0.981849 q 0.527098,0.273884 1.038693,0.41341 0.511595,0.134358 1.012854,0.134358 0.671792,0 1.033526,-0.227375 0.361734,-0.232543 0.361734,-0.651121 0,-0.387572 -0.263549,-0.594277 -0.258382,-0.206705 -1.142046,-0.397907 l -0.330728,-0.07752 q -0.883664,-0.186034 -1.276404,-0.568439 -0.392739,-0.387572 -0.392739,-1.059363 0,-0.8164853 0.578774,-1.2609012 0.578774,-0.4444159 1.643305,-0.4444159 0.527098,0 0.992184,0.077514 0.465087,0.077514 0.857827,0.2325432 z"
             id="path59554" />
          <path
             d="m 75.83288,11.429027 q -1.152381,0 -1.596797,0.263549 -0.444416,0.263549 -0.444416,0.899167 0,0.506427 0.330728,0.80615 0.335896,0.294554 0.909503,0.294554 0.790647,0 1.266068,-0.558103 0.48059,-0.563272 0.48059,-1.493444 v -0.211873 z m 1.896519,-0.39274 v 3.302114 h -0.950843 v -0.878497 q -0.325561,0.527098 -0.811318,0.780312 -0.485757,0.248046 -1.188554,0.248046 -0.888832,0 -1.41593,-0.496092 -0.52193,-0.50126 -0.52193,-1.338415 0,-0.976682 0.651121,-1.472774 0.656289,-0.496092 1.953363,-0.496092 h 1.333248 v -0.09302 q 0,-0.6562882 -0.434081,-1.0128544 -0.428913,-0.3617339 -1.209225,-0.3617339 -0.496092,0 -0.966346,0.1188554 -0.470254,0.1188554 -0.904335,0.3565663 V 8.8142078 q 0.521931,-0.2015374 1.012855,-0.2997223 0.490925,-0.1033526 0.956011,-0.1033526 1.255734,0 1.875849,0.651121 0.620115,0.651121 0.620115,1.9740331 z"
             id="path59556" />
          <path
             d="m 83.496471,11.377351 q 0,-1.033526 -0.428913,-1.6019646 -0.423745,-0.5684389 -1.193721,-0.5684389 -0.764809,0 -1.193722,0.5684389 -0.423746,0.5684386 -0.423746,1.6019646 0,1.028357 0.423746,1.596796 0.428913,0.568439 1.193722,0.568439 0.769976,0 1.193721,-0.568439 0.428913,-0.568439 0.428913,-1.596796 z m 0.950844,2.24275 q 0,1.477941 -0.656289,2.196241 -0.656289,0.723468 -2.010207,0.723468 -0.50126,0 -0.945675,-0.07751 -0.444416,-0.07235 -0.862994,-0.227375 v -0.925005 q 0.418578,0.227375 0.82682,0.335895 0.408243,0.108521 0.831988,0.108521 0.935341,0 1.400427,-0.490925 0.465086,-0.485757 0.465086,-1.472774 v -0.470254 q -0.294554,0.511595 -0.754473,0.764809 -0.459919,0.253214 -1.100705,0.253214 -1.064531,0 -1.715652,-0.811318 -0.651121,-0.811317 -0.651121,-2.149732 0,-1.343583 0.651121,-2.1549007 0.651121,-0.8113174 1.715652,-0.8113174 0.640786,0 1.100705,0.2532137 0.459919,0.2532138 0.754473,0.7648088 V 8.5506589 h 0.950844 z"
             id="path59558" />
          <path
             d="m 91.356431,11.206819 v 0.465086 h -4.371812 q 0.06201,0.98185 0.58911,1.498612 0.532265,0.511595 1.477941,0.511595 0.547768,0 1.059363,-0.134358 0.516763,-0.134358 1.023191,-0.403075 v 0.899167 q -0.511596,0.21704 -1.049029,0.330728 -0.537433,0.113688 -1.090369,0.113688 -1.384924,0 -2.196241,-0.80615 -0.80615,-0.80615 -0.80615,-2.180738 0,-1.421098 0.764809,-2.2530855 0.769976,-0.8371556 2.072218,-0.8371556 1.167884,0 1.844843,0.7544735 0.682126,0.7493059 0.682126,2.0412126 z M 90.405588,10.927767 Q 90.395253,10.147456 89.96634,9.6823691 89.542594,9.2172827 88.839797,9.2172827 q -0.795814,0 -1.276404,0.4495835 -0.475421,0.4495838 -0.547768,1.2660688 z"
             id="path59560" />
        </g>
        <path
           style="fill:none;fill-rule:evenodd;stroke:#555753;stroke-width:1.05833;stroke-linecap:butt;stroke-linejoin:miter;stroke-miterlimit:4;stroke-dasharray:none;stroke-opacity:1"
           d="m 115.77696,24.497602 v -5.14171 h 71.91558 v 5.14171"
           id="path40361" />
        <path
           style="fill:none;fill-rule:evenodd;stroke:#555753;stroke-width:1.05833;stroke-linecap:butt;stroke-linejoin:miter;stroke-miterlimit:4;stroke-dasharray:none;stroke-opacity:1"
           d="m 153.72873,19.355892 v -3.39854"
           id="path40363" />
        <g
           aria-label="padding"
           id="text40620"
           style="font-size:10.5833px;line-height:125%;letter-spacing:0px;word-spacing:0px;fill:#fcaf3e;stroke-width:0.264583px">
          <path
             d="m 134.06294,13.470231 v 3.06957 h -0.95601 V 8.5506503 h 0.95601 v 0.8784965 q 0.29972,-0.5167627 0.75447,-0.7648087 0.45992,-0.2532138 1.09554,-0.2532138 1.0542,0 1.71049,0.8371556 0.66145,0.8371551 0.66145,2.2014091 0,1.364253 -0.66145,2.201409 -0.65629,0.837155 -1.71049,0.837155 -0.63562,0 -1.09554,-0.248046 -0.45475,-0.253213 -0.75447,-0.769976 z m 3.23494,-2.020542 q 0,-1.049028 -0.43408,-1.6433054 -0.42892,-0.5994447 -1.18339,-0.5994447 -0.75447,0 -1.18856,0.5994447 -0.42891,0.5942774 -0.42891,1.6433054 0,1.049028 0.42891,1.648473 0.43409,0.594277 1.18856,0.594277 0.75447,0 1.18339,-0.594277 0.43408,-0.599445 0.43408,-1.648473 z"
             id="path59563" />
          <path
             d="m 142.49134,11.429018 q -1.15238,0 -1.5968,0.263549 -0.44441,0.263549 -0.44441,0.899167 0,0.506428 0.33073,0.80615 0.33589,0.294555 0.9095,0.294555 0.79065,0 1.26607,-0.558104 0.48059,-0.563271 0.48059,-1.493444 v -0.211873 z m 1.89652,-0.392739 v 3.302113 h -0.95084 v -0.878496 q -0.32556,0.527098 -0.81132,0.780311 -0.48576,0.248046 -1.18856,0.248046 -0.88883,0 -1.41593,-0.496092 -0.52193,-0.50126 -0.52193,-1.338415 0,-0.976682 0.65113,-1.472774 0.65628,-0.496092 1.95336,-0.496092 h 1.33325 v -0.09302 q 0,-0.6562888 -0.43408,-1.012855 -0.42892,-0.3617339 -1.20923,-0.3617339 -0.49609,0 -0.96635,0.1188554 -0.47025,0.1188555 -0.90433,0.3565663 V 8.8141992 q 0.52193,-0.2015374 1.01285,-0.2997223 0.49093,-0.1033526 0.95602,-0.1033526 1.25573,0 1.87584,0.651121 0.62012,0.651121 0.62012,1.9740337 z"
             id="path59565" />
          <path
             d="M 150.15493,9.4291468 V 6.297565 h 0.95084 v 8.040827 h -0.95084 v -0.868161 q -0.29972,0.516763 -0.75964,0.769976 -0.45475,0.248046 -1.09554,0.248046 -1.04903,0 -1.71048,-0.837155 -0.65629,-0.837156 -0.65629,-2.201409 0,-1.364254 0.65629,-2.2014091 0.66145,-0.8371556 1.71048,-0.8371556 0.64079,0 1.09554,0.2532138 0.45992,0.248046 0.75964,0.7648087 z m -3.2401,2.0205422 q 0,1.049028 0.42891,1.648473 0.43408,0.594277 1.18856,0.594277 0.75447,0 1.18855,-0.594277 0.43408,-0.599445 0.43408,-1.648473 0,-1.049028 -0.43408,-1.6433054 -0.43408,-0.5994447 -1.18855,-0.5994447 -0.75448,0 -1.18856,0.5994447 -0.42891,0.5942774 -0.42891,1.6433054 z"
             id="path59567" />
          <path
             d="M 156.87284,9.4291468 V 6.297565 h 0.95085 v 8.040827 h -0.95085 v -0.868161 q -0.29972,0.516763 -0.75964,0.769976 -0.45475,0.248046 -1.09553,0.248046 -1.04903,0 -1.71049,-0.837155 -0.65629,-0.837156 -0.65629,-2.201409 0,-1.364254 0.65629,-2.2014091 0.66146,-0.8371556 1.71049,-0.8371556 0.64078,0 1.09553,0.2532138 0.45992,0.248046 0.75964,0.7648087 z m -3.2401,2.0205422 q 0,1.049028 0.42892,1.648473 0.43408,0.594277 1.18855,0.594277 0.75447,0 1.18855,-0.594277 0.43408,-0.599445 0.43408,-1.648473 0,-1.049028 -0.43408,-1.6433054 -0.43408,-0.5994447 -1.18855,-0.5994447 -0.75447,0 -1.18855,0.5994447 -0.42892,0.5942774 -0.42892,1.6433054 z"
             id="path59569" />
          <path
             d="m 159.78222,8.5506503 h 0.95084 v 5.7877417 h -0.95084 z m 0,-2.2530853 h 0.95084 v 1.204057 h -0.95084 z"
             id="path59571" />
          <path
             d="m 167.53366,10.845077 v 3.493315 h -0.95084 v -3.46231 q 0,-0.821652 -0.3204,-1.2298949 -0.32039,-0.4082425 -0.96118,-0.4082425 -0.76997,0 -1.21439,0.4909246 -0.44441,0.4909248 -0.44441,1.3384158 v 3.271107 h -0.95601 V 8.5506503 h 0.95601 v 0.899167 q 0.34106,-0.5219303 0.80098,-0.7803116 0.46508,-0.2583814 1.0697,-0.2583814 0.99735,0 1.50894,0.6201153 0.5116,0.6149475 0.5116,1.8138374 z"
             id="path59573" />
          <path
             d="m 173.23872,11.377342 q 0,-1.033525 -0.42891,-1.6019642 -0.42375,-0.5684389 -1.19372,-0.5684389 -0.76481,0 -1.19373,0.5684389 -0.42374,0.5684392 -0.42374,1.6019642 0,1.028358 0.42374,1.596797 0.42892,0.568439 1.19373,0.568439 0.76997,0 1.19372,-0.568439 0.42891,-0.568439 0.42891,-1.596797 z m 0.95084,2.24275 q 0,1.477941 -0.65629,2.196242 -0.65628,0.723467 -2.0102,0.723467 -0.50126,0 -0.94568,-0.07751 -0.44441,-0.07235 -0.86299,-0.227376 v -0.925005 q 0.41858,0.227376 0.82682,0.335896 0.40824,0.10852 0.83199,0.10852 0.93534,0 1.40042,-0.490925 0.46509,-0.485756 0.46509,-1.472773 V 13.32037 q -0.29455,0.511595 -0.75447,0.764809 -0.45992,0.253213 -1.10071,0.253213 -1.06453,0 -1.71565,-0.811317 -0.65112,-0.811318 -0.65112,-2.149733 0,-1.343583 0.65112,-2.1549003 0.65112,-0.8113174 1.71565,-0.8113174 0.64079,0 1.10071,0.2532138 0.45992,0.2532137 0.75447,0.7648087 V 8.5506503 h 0.95084 z"
             id="path59575" />
        </g>
        <g
           aria-label="is valid x coord?"
           id="text41542"
           style="font-size:10.5833px;line-height:125%;letter-spacing:0px;word-spacing:0px;stroke-width:0.264583px">
          <path
             d="m 204.79247,32.913247 h 0.95085 v 5.787742 h -0.95085 z m 0,-2.253085 h 0.95085 v 1.204057 h -0.95085 z"
             id="path59578" />
          <path
             d="m 211.42254,33.083778 v 0.899168 q -0.40308,-0.206706 -0.83716,-0.310058 -0.43408,-0.103353 -0.89917,-0.103353 -0.70796,0 -1.06453,0.217041 -0.35139,0.21704 -0.35139,0.651121 0,0.330728 0.25321,0.52193 0.25321,0.186035 1.01802,0.356566 l 0.32556,0.07235 q 1.01286,0.21704 1.4366,0.614948 0.42891,0.392739 0.42891,1.100704 0,0.80615 -0.64078,1.276404 -0.63562,0.470254 -1.75183,0.470254 -0.46508,0 -0.97151,-0.09302 -0.50126,-0.08785 -1.05936,-0.268717 v -0.981849 q 0.52709,0.273884 1.03869,0.41341 0.51159,0.134358 1.01285,0.134358 0.6718,0 1.03353,-0.227375 0.36173,-0.232543 0.36173,-0.651121 0,-0.387572 -0.26355,-0.594277 -0.25838,-0.206705 -1.14204,-0.397907 l -0.33073,-0.07751 q -0.88366,-0.186034 -1.2764,-0.568439 -0.39274,-0.387572 -0.39274,-1.059363 0,-0.816485 0.57877,-1.260901 0.57878,-0.444416 1.64331,-0.444416 0.52709,0 0.99218,0.07751 0.46509,0.07751 0.85783,0.232543 z"
             id="path59580" />
          <path
             d="m 215.92871,32.913247 h 1.00768 l 1.80867,4.857569 1.80867,-4.857569 h 1.00769 l -2.1704,5.787742 h -1.29191 z"
             id="path59582" />
          <path
             d="m 225.50432,35.791615 q -1.15238,0 -1.5968,0.263549 -0.44441,0.263549 -0.44441,0.899167 0,0.506427 0.33073,0.80615 0.33589,0.294554 0.9095,0.294554 0.79064,0 1.26607,-0.558103 Q 226.45,36.93366 226.45,36.003488 v -0.211873 z m 1.89652,-0.39274 v 3.302114 H 226.45 v -0.878497 q -0.32556,0.527098 -0.81132,0.780312 -0.48576,0.248046 -1.18856,0.248046 -0.88883,0 -1.41593,-0.496092 -0.52193,-0.50126 -0.52193,-1.338416 0,-0.976681 0.65113,-1.472773 0.65628,-0.496092 1.95336,-0.496092 H 226.45 v -0.09302 q 0,-0.656288 -0.43408,-1.012854 -0.42892,-0.361734 -1.20923,-0.361734 -0.49609,0 -0.96635,0.118855 -0.47025,0.118855 -0.90433,0.356566 v -0.878496 q 0.52193,-0.201538 1.01285,-0.299723 0.49093,-0.103352 0.95602,-0.103352 1.25573,0 1.87584,0.651121 0.62012,0.651121 0.62012,1.974033 z"
             id="path59584" />
          <path
             d="m 229.35937,30.660162 h 0.95084 v 8.040827 h -0.95084 z"
             id="path59586" />
          <path
             d="m 232.29975,32.913247 h 0.95084 v 5.787742 h -0.95084 z m 0,-2.253085 h 0.95084 v 1.204057 h -0.95084 z"
             id="path59588" />
          <path
             d="m 239.04867,33.791743 v -3.131581 h 0.95084 v 8.040827 h -0.95084 v -0.868162 q -0.29972,0.516763 -0.75964,0.769977 -0.45475,0.248046 -1.09554,0.248046 -1.04903,0 -1.71048,-0.837156 -0.65629,-0.837155 -0.65629,-2.201409 0,-1.364253 0.65629,-2.201409 0.66145,-0.837155 1.71048,-0.837155 0.64079,0 1.09554,0.253214 0.45992,0.248046 0.75964,0.764808 z m -3.2401,2.020542 q 0,1.049029 0.42891,1.648473 0.43408,0.594277 1.18855,0.594277 0.75448,0 1.18856,-0.594277 0.43408,-0.599444 0.43408,-1.648473 0,-1.049028 -0.43408,-1.643305 -0.43408,-0.599445 -1.18856,-0.599445 -0.75447,0 -1.18855,0.599445 -0.42891,0.594277 -0.42891,1.643305 z"
             id="path59590" />
          <path
             d="m 250.67583,32.913247 -2.65616,2.837027 1.6278,2.950715 h -1.09037 l -1.22472,-2.294427 -2.12907,2.294427 h -1.15238 l 2.84737,-3.0489 -1.51412,-2.738842 h 1.09037 l 1.11104,2.092889 1.93786,-2.092889 z"
             style="font-style:italic;-inkscape-font-specification:'sans-serif Italic'"
             id="path59592" />
          <path
             d="m 259.11457,33.135455 v 0.888832 q -0.40308,-0.222208 -0.81132,-0.330729 -0.40308,-0.113687 -0.81649,-0.113687 -0.925,0 -1.4366,0.589109 -0.51159,0.583942 -0.51159,1.643305 0,1.059364 0.51159,1.648473 0.5116,0.583942 1.4366,0.583942 0.41341,0 0.81649,-0.10852 0.40824,-0.113688 0.81132,-0.335896 v 0.878497 q -0.39791,0.186034 -0.82682,0.279052 -0.42375,0.09302 -0.90434,0.09302 -1.30741,0 -2.07739,-0.821653 -0.76997,-0.821652 -0.76997,-2.216912 0,-1.415929 0.77514,-2.227247 0.78031,-0.811317 2.13423,-0.811317 0.43925,0 0.85783,0.09302 0.41858,0.08785 0.81132,0.268717 z"
             id="path59594" />
          <path
             d="m 263.01095,33.579871 q -0.76481,0 -1.20922,0.599444 -0.44442,0.594277 -0.44442,1.63297 0,1.038693 0.43925,1.638138 0.44442,0.594277 1.21439,0.594277 0.75964,0 1.20406,-0.599445 0.44442,-0.599444 0.44442,-1.63297 0,-1.028357 -0.44442,-1.627802 -0.44442,-0.604612 -1.20406,-0.604612 z m 0,-0.80615 q 1.24023,0 1.9482,0.80615 0.70796,0.806149 0.70796,2.232414 0,1.421098 -0.70796,2.232415 -0.70797,0.80615 -1.9482,0.80615 -1.24539,0 -1.95336,-0.80615 -0.7028,-0.811317 -0.7028,-2.232415 0,-1.426265 0.7028,-2.232414 0.70797,-0.80615 1.95336,-0.80615 z"
             id="path59596" />
          <path
             d="m 269.48599,33.579871 q -0.76481,0 -1.20922,0.599444 -0.44442,0.594277 -0.44442,1.63297 0,1.038693 0.43925,1.638138 0.44441,0.594277 1.21439,0.594277 0.75964,0 1.20406,-0.599445 0.44441,-0.599444 0.44441,-1.63297 0,-1.028357 -0.44441,-1.627802 -0.44442,-0.604612 -1.20406,-0.604612 z m 0,-0.80615 q 1.24023,0 1.9482,0.80615 0.70796,0.806149 0.70796,2.232414 0,1.421098 -0.70796,2.232415 -0.70797,0.80615 -1.9482,0.80615 -1.2454,0 -1.95336,-0.80615 -0.7028,-0.811317 -0.7028,-2.232415 0,-1.426265 0.7028,-2.232414 0.70796,-0.80615 1.95336,-0.80615 z"
             id="path59598" />
          <path
             d="m 277.07207,33.802079 q -0.1602,-0.09302 -0.3514,-0.134359 -0.18604,-0.04651 -0.41341,-0.04651 -0.80615,0 -1.24023,0.527098 -0.42892,0.52193 -0.42892,1.503779 v 3.0489 h -0.95601 v -5.787742 h 0.95601 v 0.899167 q 0.29973,-0.527098 0.78032,-0.780312 0.48058,-0.258381 1.16788,-0.258381 0.0982,0 0.21704,0.0155 0.11885,0.01034 0.26355,0.03617 z"
             id="path59600" />
          <path
             d="m 281.69193,33.791743 v -3.131581 h 0.95084 v 8.040827 h -0.95084 v -0.868162 q -0.29973,0.516763 -0.75965,0.769977 -0.45475,0.248046 -1.09553,0.248046 -1.04903,0 -1.71049,-0.837156 -0.65629,-0.837155 -0.65629,-2.201409 0,-1.364253 0.65629,-2.201409 0.66146,-0.837155 1.71049,-0.837155 0.64078,0 1.09553,0.253214 0.45992,0.248046 0.75965,0.764808 z m -3.24011,2.020542 q 0,1.049029 0.42892,1.648473 0.43408,0.594277 1.18855,0.594277 0.75447,0 1.18855,-0.594277 0.43409,-0.599444 0.43409,-1.648473 0,-1.049028 -0.43409,-1.643305 -0.43408,-0.599445 -1.18855,-0.599445 -0.75447,0 -1.18855,0.599445 -0.42892,0.594277 -0.42892,1.643305 z"
             id="path59602" />
          <path
             d="m 285.62449,37.388412 h 1.04903 v 1.312577 h -1.04903 z m 1.01803,-0.759642 h -0.98702 v -0.795814 q 0,-0.52193 0.14469,-0.857826 0.1447,-0.335896 0.60978,-0.780312 l 0.46509,-0.459919 q 0.29455,-0.273884 0.42374,-0.516762 0.13436,-0.242879 0.13436,-0.496092 0,-0.459919 -0.34106,-0.744139 -0.3359,-0.284219 -0.894,-0.284219 -0.40824,0 -0.87333,0.180867 -0.45992,0.180867 -0.96118,0.527098 v -0.971514 q 0.48576,-0.294555 0.98185,-0.439248 0.50126,-0.144694 1.03353,-0.144694 0.95084,0 1.52445,0.50126 0.57877,0.50126 0.57877,1.322912 0,0.39274 -0.18603,0.749306 -0.18604,0.351399 -0.65113,0.795815 l -0.45475,0.444416 q -0.24287,0.242878 -0.34623,0.382404 -0.0982,0.134358 -0.13952,0.263549 -0.031,0.10852 -0.0465,0.263549 -0.0155,0.155029 -0.0155,0.423745 z"
             id="path59604" />
        </g>
        <path
           id="rect49378"
           style="fill:none;stroke:#000000;stroke-width:1.02411"
           d="M 20.897516,65.601891 H 39.873404 V 84.577778 H 20.897516 Z" />
        <g
           aria-label="h"
           id="text49382"
           style="font-size:19.4028px;line-height:125%;letter-spacing:0px;word-spacing:0px;stroke-width:0.504765px">
          <path
             d="M 26.883254,81.812904 V 68.638403 l 1.610432,-0.271639 v 4.579061 q 0.388056,-0.155222 0.873126,-0.232834 0.48507,-0.09701 0.950738,-0.09701 1.028348,0 1.707446,0.310445 0.698501,0.291042 1.10596,0.834321 0.407458,0.543278 0.582084,1.299987 0.174625,0.756709 0.174625,1.668641 v 5.083533 h -1.59103 v -4.734283 q 0,-1.668641 -0.465667,-2.347738 -0.465667,-0.698501 -1.668641,-0.698501 -0.504473,0 -0.989543,0.116417 -0.465667,0.09701 -0.679098,0.194028 v 7.470077 z"
             style="font-family:'Ubuntu Mono';-inkscape-font-specification:'Ubuntu Mono'"
             id="path59608" />
        </g>
        <path
           id="rect49384"
           style="fill:none;stroke:#000000;stroke-width:1.02411"
           d="M 39.873405,65.601891 H 58.849293 V 84.577778 H 39.873405 Z" />
        <g
           aria-label="e"
           id="text49388"
           style="font-size:19.4028px;line-height:125%;letter-spacing:0px;word-spacing:0px;stroke-width:0.504765px">
          <path
             d="m 49.50687,72.596575 q 1.823863,0 2.813406,1.144765 0.989542,1.125362 0.989542,3.434295 v 0.562681 h -6.441729 q 0.09701,1.397002 0.911931,2.134308 0.834321,0.717904 2.328336,0.717904 0.853724,0 1.45521,-0.13582 0.601487,-0.135819 0.911932,-0.291042 l 0.213431,1.358196 q -0.291042,0.155223 -1.047751,0.329848 -0.75671,0.174625 -1.707447,0.174625 -1.164168,0 -2.056697,-0.34925 -0.873126,-0.368653 -1.45521,-0.989543 -0.582084,-0.62089 -0.873126,-1.474613 -0.291042,-0.873126 -0.291042,-1.882071 0,-1.202974 0.368654,-2.095503 0.368653,-0.892528 0.97014,-1.474612 0.601486,-0.582084 1.358196,-0.873126 0.756709,-0.291042 1.552224,-0.291042 z m 2.173113,3.841754 q 0,-1.144765 -0.601487,-1.80446 -0.601486,-0.679098 -1.591029,-0.679098 -0.562681,0 -1.028349,0.21343 -0.446264,0.213431 -0.776112,0.562682 -0.329847,0.34925 -0.523875,0.795514 -0.194028,0.446265 -0.252237,0.911932 z"
             style="font-family:'Ubuntu Mono';-inkscape-font-specification:'Ubuntu Mono'"
             id="path59612" />
        </g>
        <path
           id="rect49390"
           style="fill:none;stroke:#000000;stroke-width:1.02411"
           d="M 58.849293,65.601891 H 77.82518 V 84.577778 H 58.849293 Z" />
        <g
           aria-label="l"
           id="text49394"
           style="font-size:19.4028px;line-height:125%;letter-spacing:0px;word-spacing:0px;stroke-width:0.504765px">
          <path
             d="m 70.015578,82.026335 q -0.853723,0 -1.416404,-0.232833 -0.562681,-0.232834 -0.892529,-0.698501 -0.329848,-0.465667 -0.465667,-1.144765 -0.13582,-0.698501 -0.13582,-1.610433 v -8.517829 h -2.599975 v -1.358196 h 4.191005 v 9.876025 q 0,0.679098 0.07761,1.10596 0.09701,0.426861 0.271639,0.698501 0.194028,0.252236 0.465667,0.34925 0.271639,0.09701 0.640293,0.09701 0.562681,0 1.047751,-0.13582 0.48507,-0.135819 0.756709,-0.291042 l 0.232834,1.358196 q -0.116417,0.05821 -0.329848,0.155223 -0.213431,0.07761 -0.504473,0.155222 -0.291042,0.07761 -0.640292,0.13582 -0.329848,0.05821 -0.698501,0.05821 z"
             style="font-family:'Ubuntu Mono';-inkscape-font-specification:'Ubuntu Mono'"
             id="path59616" />
        </g>
        <path
           id="rect49396"
           style="fill:none;stroke:#000000;stroke-width:1.02411"
           d="M 77.82518,65.601891 H 96.801067 V 84.577778 H 77.82518 Z" />
        <g
           aria-label="l"
           id="text49400"
           style="font-size:19.4028px;line-height:125%;letter-spacing:0px;word-spacing:0px;stroke-width:0.504765px">
          <path
             d="m 88.991465,82.026335 q -0.853723,0 -1.416404,-0.232833 -0.562681,-0.232834 -0.892529,-0.698501 -0.329847,-0.465667 -0.465667,-1.144765 -0.13582,-0.698501 -0.13582,-1.610433 V 69.821974 H 83.48107 v -1.358196 h 4.191005 v 9.876025 q 0,0.679098 0.07761,1.10596 0.09701,0.426861 0.271639,0.698501 0.194028,0.252236 0.465668,0.34925 0.271639,0.09701 0.640292,0.09701 0.562681,0 1.047751,-0.13582 0.48507,-0.135819 0.756709,-0.291042 l 0.232834,1.358196 q -0.116417,0.05821 -0.329848,0.155223 -0.21343,0.07761 -0.504472,0.155222 -0.291042,0.07761 -0.640293,0.13582 -0.329847,0.05821 -0.698501,0.05821 z"
             style="font-family:'Ubuntu Mono';-inkscape-font-specification:'Ubuntu Mono'"
             id="path59620" />
        </g>
        <path
           id="rect49402"
           style="fill:none;stroke:#000000;stroke-width:1.02411"
           d="M 96.801071,65.601891 H 115.77696 V 84.577778 H 96.801071 Z" />
        <g
           aria-label="o"
           id="text49406"
           style="font-size:19.4028px;line-height:125%;letter-spacing:0px;word-spacing:0px;stroke-width:0.504765px">
          <path
             d="m 110.3345,77.311455 q 0,1.067154 -0.31045,1.94028 -0.29104,0.853723 -0.83432,1.474613 -0.54328,0.620889 -1.29998,0.97014 -0.75671,0.329847 -1.64924,0.329847 -0.87313,0 -1.62984,-0.329847 -0.7373,-0.349251 -1.28058,-0.97014 -0.54328,-0.62089 -0.85373,-1.474613 -0.29104,-0.873126 -0.29104,-1.94028 0,-1.067154 0.29104,-1.94028 0.31045,-0.873126 0.85373,-1.474613 0.54328,-0.620889 1.28058,-0.950737 0.75671,-0.34925 1.62984,-0.34925 0.89253,0 1.64924,0.34925 0.7567,0.329848 1.29998,0.950737 0.54328,0.601487 0.83432,1.474613 0.31045,0.873126 0.31045,1.94028 z m -1.64924,0 q 0,-1.532821 -0.6597,-2.405947 -0.65969,-0.892529 -1.78505,-0.892529 -1.10596,0 -1.76566,0.892529 -0.64029,0.873126 -0.64029,2.405947 0,1.513418 0.64029,2.405947 0.6597,0.873126 1.76566,0.873126 1.12536,0 1.78505,-0.873126 0.6597,-0.892529 0.6597,-2.405947 z"
             style="font-family:'Ubuntu Mono';-inkscape-font-specification:'Ubuntu Mono'"
             id="path59624" />
        </g>
        <path
           id="rect49408"
           style="fill:none;stroke:#000000;stroke-width:1.02411"
           d="m 115.77696,65.601891 h 18.97589 v 18.975887 h -18.97589 z" />
        <g
           aria-label="0"
           id="text49412"
           style="font-size:19.4028px;line-height:125%;letter-spacing:0px;word-spacing:0px;fill:#fcaf3e;stroke-width:0.504765px">
          <path
             d="m 126.36116,75.584606 q 0,0.504472 -0.31044,0.873126 -0.29104,0.368653 -0.77611,0.368653 -0.50448,0 -0.81492,-0.368653 -0.31045,-0.368654 -0.31045,-0.873126 0,-0.504473 0.31045,-0.892529 0.31044,-0.388056 0.81492,-0.388056 0.48507,0 0.77611,0.388056 0.31044,0.388056 0.31044,0.892529 z m -5.08353,0.21343 q 0,-3.026836 1.02835,-4.637269 1.04775,-1.629835 2.92982,-1.629835 1.90148,0 2.92982,1.629835 1.02835,1.610433 1.02835,4.637269 0,3.026837 -1.02835,4.656672 -1.02834,1.610433 -2.92982,1.610433 -1.88207,0 -2.92982,-1.610433 -1.02835,-1.629835 -1.02835,-4.656672 z m 6.28651,0 q 0,-0.989542 -0.11642,-1.862668 -0.11642,-0.892529 -0.38806,-1.552224 -0.27163,-0.659695 -0.7179,-1.047751 -0.44626,-0.388056 -1.10596,-0.388056 -0.65969,0 -1.10596,0.388056 -0.44626,0.388056 -0.7179,1.047751 -0.27164,0.659695 -0.38806,1.552224 -0.11641,0.873126 -0.11641,1.862668 0,0.989543 0.11641,1.882072 0.11642,0.873126 0.38806,1.532821 0.27164,0.659695 0.7179,1.047751 0.44627,0.388056 1.10596,0.388056 0.6597,0 1.10596,-0.388056 0.44627,-0.388056 0.7179,-1.047751 0.27164,-0.659695 0.38806,-1.532821 0.11642,-0.892529 0.11642,-1.882072 z"
             style="font-family:'Ubuntu Mono';-inkscape-font-specification:'Ubuntu Mono'"
             id="path59628" />
        </g>
        <path
           id="rect49414"
           style="fill:none;stroke:#000000;stroke-width:1.02411"
           d="m 134.75285,65.601891 h 18.97589 v 18.975887 h -18.97589 z" />
        <g
           aria-label="0"
           id="text49418"
           style="font-size:19.4028px;line-height:125%;letter-spacing:0px;word-spacing:0px;fill:#fcaf3e;stroke-width:0.504765px">
          <path
             d="m 145.33705,75.584606 q 0,0.504472 -0.31044,0.873126 -0.29104,0.368653 -0.77611,0.368653 -0.50447,0 -0.81492,-0.368653 -0.31044,-0.368654 -0.31044,-0.873126 0,-0.504473 0.31044,-0.892529 0.31045,-0.388056 0.81492,-0.388056 0.48507,0 0.77611,0.388056 0.31044,0.388056 0.31044,0.892529 z m -5.08353,0.21343 q 0,-3.026836 1.02835,-4.637269 1.04775,-1.629835 2.92982,-1.629835 1.90148,0 2.92983,1.629835 1.02834,1.610433 1.02834,4.637269 0,3.026837 -1.02834,4.656672 -1.02835,1.610433 -2.92983,1.610433 -1.88207,0 -2.92982,-1.610433 -1.02835,-1.629835 -1.02835,-4.656672 z m 6.28651,0 q 0,-0.989542 -0.11642,-1.862668 -0.11642,-0.892529 -0.38805,-1.552224 -0.27164,-0.659695 -0.71791,-1.047751 -0.44626,-0.388056 -1.10596,-0.388056 -0.65969,0 -1.10596,0.388056 -0.44626,0.388056 -0.7179,1.047751 -0.27164,0.659695 -0.38806,1.552224 -0.11641,0.873126 -0.11641,1.862668 0,0.989543 0.11641,1.882072 0.11642,0.873126 0.38806,1.532821 0.27164,0.659695 0.7179,1.047751 0.44627,0.388056 1.10596,0.388056 0.6597,0 1.10596,-0.388056 0.44627,-0.388056 0.71791,-1.047751 0.27163,-0.659695 0.38805,-1.532821 0.11642,-0.892529 0.11642,-1.882072 z"
             style="font-family:'Ubuntu Mono';-inkscape-font-specification:'Ubuntu Mono'"
             id="path59632" />
        </g>
        <path
           id="rect49420"
           style="fill:none;stroke:#000000;stroke-width:1.02411"
           d="m 153.72874,65.601891 h 18.97589 v 18.975887 h -18.97589 z" />
        <g
           aria-label="0"
           id="text49424"
           style="font-size:19.4028px;line-height:125%;letter-spacing:0px;word-spacing:0px;fill:#fcaf3e;stroke-width:0.504765px">
          <path
             d="m 164.31295,75.584606 q 0,0.504472 -0.31045,0.873126 -0.29104,0.368653 -0.77611,0.368653 -0.50447,0 -0.81492,-0.368653 -0.31044,-0.368654 -0.31044,-0.873126 0,-0.504473 0.31044,-0.892529 0.31045,-0.388056 0.81492,-0.388056 0.48507,0 0.77611,0.388056 0.31045,0.388056 0.31045,0.892529 z m -5.08354,0.21343 q 0,-3.026836 1.02835,-4.637269 1.04775,-1.629835 2.92982,-1.629835 1.90148,0 2.92983,1.629835 1.02834,1.610433 1.02834,4.637269 0,3.026837 -1.02834,4.656672 -1.02835,1.610433 -2.92983,1.610433 -1.88207,0 -2.92982,-1.610433 -1.02835,-1.629835 -1.02835,-4.656672 z m 6.28651,0 q 0,-0.989542 -0.11642,-1.862668 -0.11641,-0.892529 -0.38805,-1.552224 -0.27164,-0.659695 -0.71791,-1.047751 -0.44626,-0.388056 -1.10596,-0.388056 -0.65969,0 -1.10596,0.388056 -0.44626,0.388056 -0.7179,1.047751 -0.27164,0.659695 -0.38806,1.552224 -0.11641,0.873126 -0.11641,1.862668 0,0.989543 0.11641,1.882072 0.11642,0.873126 0.38806,1.532821 0.27164,0.659695 0.7179,1.047751 0.44627,0.388056 1.10596,0.388056 0.6597,0 1.10596,-0.388056 0.44627,-0.388056 0.71791,-1.047751 0.27164,-0.659695 0.38805,-1.532821 0.11642,-0.892529 0.11642,-1.882072 z"
             style="font-family:'Ubuntu Mono';-inkscape-font-specification:'Ubuntu Mono'"
             id="path59636" />
        </g>
        <path
           id="rect49426"
           style="fill:none;stroke:#000000;stroke-width:1.02411"
           d="m 172.70464,65.601891 h 18.97588 v 18.975887 h -18.97588 z" />
        <g
           aria-label="2"
           id="text49430"
           style="font-size:19.4028px;line-height:125%;letter-spacing:0px;word-spacing:0px;fill:#fcaf3e;stroke-width:0.504765px">
          <path
             d="m 185.46195,72.868214 q 0,0.620889 -0.25224,1.202973 -0.23283,0.582084 -0.64029,1.144765 -0.38805,0.562682 -0.89253,1.10596 -0.50447,0.543278 -1.02835,1.067154 -0.29104,0.291042 -0.67909,0.698501 -0.38806,0.407459 -0.73731,0.83432 -0.34925,0.426862 -0.58208,0.834321 -0.23284,0.407458 -0.23284,0.6985 h 5.5298 v 1.358196 h -7.27605 q -0.0194,-0.09701 -0.0194,-0.194028 0,-0.116416 0,-0.21343 0,-0.814918 0.27164,-1.513419 0.27164,-0.698501 0.6985,-1.31939 0.42686,-0.62089 0.95073,-1.164168 0.54328,-0.562681 1.06716,-1.086557 0.42686,-0.426862 0.81492,-0.83432 0.40746,-0.407459 0.6985,-0.814918 0.31044,-0.407459 0.48507,-0.83432 0.19403,-0.446265 0.19403,-0.911932 0,-0.523875 -0.17463,-0.892529 -0.15522,-0.368653 -0.44626,-0.601486 -0.27164,-0.252237 -0.6403,-0.368654 -0.36865,-0.116416 -0.79551,-0.116416 -0.50447,0 -0.93134,0.135819 -0.40745,0.13582 -0.7373,0.329848 -0.31045,0.194028 -0.54328,0.388056 -0.23283,0.174625 -0.34925,0.291042 l -0.79552,-1.125363 q 0.15523,-0.174625 0.46567,-0.426861 0.31045,-0.252237 0.73731,-0.465667 0.44626,-0.232834 0.98954,-0.388056 0.54328,-0.155223 1.16417,-0.155223 1.88207,0 2.7746,0.873126 0.91193,0.853723 0.91193,2.464156 z"
             style="font-family:'Ubuntu Mono';-inkscape-font-specification:'Ubuntu Mono'"
             id="path59640" />
        </g>
        <path
           style="fill:none;fill-rule:evenodd;stroke:#555753;stroke-width:1.05833;stroke-linecap:butt;stroke-linejoin:miter;stroke-miterlimit:4;stroke-dasharray:none;stroke-opacity:1;marker-end:url(#TriangleOutL)"
           d="m 201.16846,75.089826 86.64177,10e-7"
           id="path49432" />
        <g
           id="g49438"
           transform="translate(12.687867,74.196917)">
          <path
             style="fill:none;fill-rule:evenodd;stroke:#ef2929;stroke-width:2.64583;stroke-linecap:round;stroke-linejoin:miter;stroke-miterlimit:4;stroke-dasharray:none;stroke-opacity:1"
             d="M 289.79767,-5.6943473 300.75565,7.4801663"
             id="path49434" />
          <path
             style="fill:none;fill-rule:evenodd;stroke:#ef2929;stroke-width:2.64583;stroke-linecap:round;stroke-linejoin:miter;stroke-miterlimit:4;stroke-dasharray:none;stroke-opacity:1"
             d="M 288.69081,6.4229098 302.04132,-4.2948087"
             id="path49436" />
        </g>
        <g
           aria-label="no"
           id="text49442"
           style="font-size:14.1111px;line-height:125%;letter-spacing:0px;word-spacing:0px;fill:none;stroke:#000000;stroke-width:0.264583px">
          <path
             d="m 319.65297,71.632607 q 0.45155,-0.112889 1.19944,-0.239889 0.74789,-0.126999 1.72155,-0.126999 0.87489,0 1.45345,0.253999 0.57855,0.239889 0.91722,0.691444 0.35278,0.437444 0.49389,1.058333 0.14111,0.620888 0.14111,1.368777 v 4.120441 h -1.31233 v -3.838219 q 0,-0.677333 -0.0988,-1.157111 -0.0847,-0.479777 -0.29633,-0.77611 -0.21167,-0.296333 -0.56445,-0.423333 -0.35278,-0.141111 -0.87489,-0.141111 -0.21166,0 -0.43744,0.01411 -0.22578,0.01411 -0.43745,0.04233 -0.19755,0.01411 -0.36688,0.04233 -0.15523,0.02822 -0.22578,0.04233 v 6.194773 h -1.31233 z"
             style="font-family:Ubuntu;-inkscape-font-specification:Ubuntu;fill:#000000;stroke:none"
             id="path59643" />
          <path
             d="m 334.22972,75.089827 q 0,0.874888 -0.254,1.580443 -0.254,0.705555 -0.71966,1.213555 -0.45156,0.507999 -1.08656,0.790221 -0.635,0.268111 -1.38288,0.268111 -0.74789,0 -1.38289,-0.268111 -0.635,-0.282222 -1.10067,-0.790221 -0.45155,-0.508 -0.70555,-1.213555 -0.254,-0.705555 -0.254,-1.580443 0,-0.860777 0.254,-1.566332 0.254,-0.719667 0.70555,-1.227666 0.46567,-0.508 1.10067,-0.776111 0.635,-0.282222 1.38289,-0.282222 0.74788,0 1.38288,0.282222 0.635,0.268111 1.08656,0.776111 0.46566,0.507999 0.71966,1.227666 0.254,0.705555 0.254,1.566332 z m -1.36877,0 q 0,-1.241777 -0.56445,-1.961443 -0.55033,-0.733777 -1.50988,-0.733777 -0.95956,0 -1.524,0.733777 -0.55034,0.719666 -0.55034,1.961443 0,1.241777 0.55034,1.975554 0.56444,0.719666 1.524,0.719666 0.95955,0 1.50988,-0.719666 0.56445,-0.733777 0.56445,-1.975554 z"
             style="font-family:Ubuntu;-inkscape-font-specification:Ubuntu;fill:#000000;stroke:none"
             id="path59645" />
        </g>
        <path
           id="rect50956"
           style="fill:none;stroke:#000000;stroke-width:1.02411"
           d="M 20.897516,94.065712 H 39.873404 V 113.0416 H 20.897516 Z" />
        <g
           aria-label="h"
           id="text50960"
           style="font-size:19.4028px;line-height:125%;letter-spacing:0px;word-spacing:0px;stroke-width:0.504765px">
          <path
             d="M 26.883254,110.27673 V 97.102232 l 1.610432,-0.271639 v 4.579057 q 0.388056,-0.15522 0.873126,-0.23283 0.48507,-0.097 0.950738,-0.097 1.028348,0 1.707446,0.31044 0.698501,0.29104 1.10596,0.83432 0.407458,0.54328 0.582084,1.29999 0.174625,0.75671 0.174625,1.66864 v 5.08353 h -1.59103 v -4.73428 q 0,-1.66864 -0.465667,-2.34774 -0.465667,-0.6985 -1.668641,-0.6985 -0.504473,0 -0.989543,0.11642 -0.465667,0.097 -0.679098,0.19403 v 7.47007 z"
             style="font-family:'Ubuntu Mono';-inkscape-font-specification:'Ubuntu Mono'"
             id="path59649" />
        </g>
        <path
           id="rect50962"
           style="fill:none;stroke:#000000;stroke-width:1.02411"
           d="M 39.873405,94.065712 H 58.849293 V 113.0416 H 39.873405 Z" />
        <g
           aria-label="e"
           id="text50966"
           style="font-size:19.4028px;line-height:125%;letter-spacing:0px;word-spacing:0px;stroke-width:0.504765px">
          <path
             d="m 49.50687,101.0604 q 1.823863,0 2.813406,1.14477 0.989542,1.12536 0.989542,3.43429 v 0.56269 h -6.441729 q 0.09701,1.397 0.911931,2.1343 0.834321,0.71791 2.328336,0.71791 0.853724,0 1.45521,-0.13582 0.601487,-0.13582 0.911932,-0.29104 l 0.213431,1.35819 q -0.291042,0.15522 -1.047751,0.32985 -0.75671,0.17462 -1.707447,0.17462 -1.164168,0 -2.056697,-0.34925 -0.873126,-0.36865 -1.45521,-0.98954 -0.582084,-0.62089 -0.873126,-1.47461 -0.291042,-0.87313 -0.291042,-1.88207 0,-1.20298 0.368654,-2.09551 0.368653,-0.89252 0.97014,-1.47461 0.601486,-0.58208 1.358196,-0.87312 0.756709,-0.29105 1.552224,-0.29105 z m 2.173113,3.84176 q 0,-1.14477 -0.601487,-1.80446 -0.601486,-0.6791 -1.591029,-0.6791 -0.562681,0 -1.028349,0.21343 -0.446264,0.21343 -0.776112,0.56268 -0.329847,0.34925 -0.523875,0.79552 -0.194028,0.44626 -0.252237,0.91193 z"
             style="font-family:'Ubuntu Mono';-inkscape-font-specification:'Ubuntu Mono'"
             id="path59653" />
        </g>
        <path
           id="rect50968"
           style="fill:none;stroke:#000000;stroke-width:1.02411"
           d="M 58.849293,94.065712 H 77.82518 V 113.0416 H 58.849293 Z" />
        <g
           aria-label="l"
           id="text50972"
           style="font-size:19.4028px;line-height:125%;letter-spacing:0px;word-spacing:0px;stroke-width:0.504765px">
          <path
             d="m 70.015578,110.49016 q -0.853723,0 -1.416404,-0.23283 -0.562681,-0.23283 -0.892529,-0.6985 -0.329848,-0.46567 -0.465667,-1.14477 -0.13582,-0.6985 -0.13582,-1.61043 v -8.517827 h -2.599975 v -1.358196 h 4.191005 v 9.876023 q 0,0.6791 0.07761,1.10596 0.09701,0.42686 0.271639,0.6985 0.194028,0.25224 0.465667,0.34925 0.271639,0.097 0.640293,0.097 0.562681,0 1.047751,-0.13582 0.48507,-0.13582 0.756709,-0.29104 l 0.232834,1.35819 q -0.116417,0.0582 -0.329848,0.15522 -0.213431,0.0776 -0.504473,0.15523 -0.291042,0.0776 -0.640292,0.13582 -0.329848,0.0582 -0.698501,0.0582 z"
             style="font-family:'Ubuntu Mono';-inkscape-font-specification:'Ubuntu Mono'"
             id="path59657" />
        </g>
        <path
           id="rect50974"
           style="fill:none;stroke:#000000;stroke-width:1.02411"
           d="M 77.82518,94.065712 H 96.801067 V 113.0416 H 77.82518 Z" />
        <g
           aria-label="l"
           id="text50978"
           style="font-size:19.4028px;line-height:125%;letter-spacing:0px;word-spacing:0px;stroke-width:0.504765px">
          <path
             d="m 88.991465,110.49016 q -0.853723,0 -1.416404,-0.23283 -0.562681,-0.23283 -0.892529,-0.6985 -0.329847,-0.46567 -0.465667,-1.14477 -0.13582,-0.6985 -0.13582,-1.61043 V 98.285803 H 83.48107 v -1.358196 h 4.191005 v 9.876023 q 0,0.6791 0.07761,1.10596 0.09701,0.42686 0.271639,0.6985 0.194028,0.25224 0.465668,0.34925 0.271639,0.097 0.640292,0.097 0.562681,0 1.047751,-0.13582 0.48507,-0.13582 0.756709,-0.29104 l 0.232834,1.35819 q -0.116417,0.0582 -0.329848,0.15522 -0.21343,0.0776 -0.504472,0.15523 -0.291042,0.0776 -0.640293,0.13582 -0.329847,0.0582 -0.698501,0.0582 z"
             style="font-family:'Ubuntu Mono';-inkscape-font-specification:'Ubuntu Mono'"
             id="path59661" />
        </g>
        <path
           id="rect50980"
           style="fill:none;stroke:#000000;stroke-width:1.02411"
           d="M 96.801071,94.065712 H 115.77696 V 113.0416 H 96.801071 Z" />
        <g
           aria-label="o"
           id="text50984"
           style="font-size:19.4028px;line-height:125%;letter-spacing:0px;word-spacing:0px;stroke-width:0.504765px">
          <path
             d="m 110.3345,105.77528 q 0,1.06716 -0.31045,1.94028 -0.29104,0.85373 -0.83432,1.47462 -0.54328,0.62089 -1.29998,0.97014 -0.75671,0.32984 -1.64924,0.32984 -0.87313,0 -1.62984,-0.32984 -0.7373,-0.34925 -1.28058,-0.97014 -0.54328,-0.62089 -0.85373,-1.47462 -0.29104,-0.87312 -0.29104,-1.94028 0,-1.06715 0.29104,-1.94028 0.31045,-0.87312 0.85373,-1.47461 0.54328,-0.62089 1.28058,-0.95074 0.75671,-0.34925 1.62984,-0.34925 0.89253,0 1.64924,0.34925 0.7567,0.32985 1.29998,0.95074 0.54328,0.60149 0.83432,1.47461 0.31045,0.87313 0.31045,1.94028 z m -1.64924,0 q 0,-1.53282 -0.6597,-2.40594 -0.65969,-0.89253 -1.78505,-0.89253 -1.10596,0 -1.76566,0.89253 -0.64029,0.87312 -0.64029,2.40594 0,1.51342 0.64029,2.40595 0.6597,0.87313 1.76566,0.87313 1.12536,0 1.78505,-0.87313 0.6597,-0.89253 0.6597,-2.40595 z"
             style="font-family:'Ubuntu Mono';-inkscape-font-specification:'Ubuntu Mono'"
             id="path59665" />
        </g>
        <path
           id="rect50986"
           style="fill:none;stroke:#000000;stroke-width:1.02411"
           d="m 115.77696,94.065712 h 18.97589 V 113.0416 h -18.97589 z" />
        <g
           aria-label="0"
           id="text50990"
           style="font-size:19.4028px;line-height:125%;letter-spacing:0px;word-spacing:0px;fill:#fcaf3e;stroke-width:0.504765px">
          <path
             d="m 126.36116,104.04843 q 0,0.50448 -0.31044,0.87313 -0.29104,0.36865 -0.77611,0.36865 -0.50448,0 -0.81492,-0.36865 -0.31045,-0.36865 -0.31045,-0.87313 0,-0.50447 0.31045,-0.89252 0.31044,-0.38806 0.81492,-0.38806 0.48507,0 0.77611,0.38806 0.31044,0.38805 0.31044,0.89252 z m -5.08353,0.21344 q 0,-3.02684 1.02835,-4.637274 1.04775,-1.629835 2.92982,-1.629835 1.90148,0 2.92982,1.629835 1.02835,1.610434 1.02835,4.637274 0,3.02683 -1.02835,4.65667 -1.02834,1.61043 -2.92982,1.61043 -1.88207,0 -2.92982,-1.61043 -1.02835,-1.62984 -1.02835,-4.65667 z m 6.28651,0 q 0,-0.98955 -0.11642,-1.86267 -0.11642,-0.89253 -0.38806,-1.55223 -0.27163,-0.65969 -0.7179,-1.047748 -0.44626,-0.388056 -1.10596,-0.388056 -0.65969,0 -1.10596,0.388056 -0.44626,0.388058 -0.7179,1.047748 -0.27164,0.6597 -0.38806,1.55223 -0.11641,0.87312 -0.11641,1.86267 0,0.98954 0.11641,1.88207 0.11642,0.87312 0.38806,1.53282 0.27164,0.65969 0.7179,1.04775 0.44627,0.38806 1.10596,0.38806 0.6597,0 1.10596,-0.38806 0.44627,-0.38806 0.7179,-1.04775 0.27164,-0.6597 0.38806,-1.53282 0.11642,-0.89253 0.11642,-1.88207 z"
             style="font-family:'Ubuntu Mono';-inkscape-font-specification:'Ubuntu Mono'"
             id="path59669" />
        </g>
        <path
           id="rect50992"
           style="fill:none;stroke:#000000;stroke-width:1.02411"
           d="m 134.75285,94.065712 h 18.97589 V 113.0416 h -18.97589 z" />
        <g
           aria-label="0"
           id="text50996"
           style="font-size:19.4028px;line-height:125%;letter-spacing:0px;word-spacing:0px;fill:#fcaf3e;stroke-width:0.504765px">
          <path
             d="m 145.33705,104.04843 q 0,0.50448 -0.31044,0.87313 -0.29104,0.36865 -0.77611,0.36865 -0.50447,0 -0.81492,-0.36865 -0.31044,-0.36865 -0.31044,-0.87313 0,-0.50447 0.31044,-0.89252 0.31045,-0.38806 0.81492,-0.38806 0.48507,0 0.77611,0.38806 0.31044,0.38805 0.31044,0.89252 z m -5.08353,0.21344 q 0,-3.02684 1.02835,-4.637274 1.04775,-1.629835 2.92982,-1.629835 1.90148,0 2.92983,1.629835 1.02834,1.610434 1.02834,4.637274 0,3.02683 -1.02834,4.65667 -1.02835,1.61043 -2.92983,1.61043 -1.88207,0 -2.92982,-1.61043 -1.02835,-1.62984 -1.02835,-4.65667 z m 6.28651,0 q 0,-0.98955 -0.11642,-1.86267 -0.11642,-0.89253 -0.38805,-1.55223 -0.27164,-0.65969 -0.71791,-1.047748 -0.44626,-0.388056 -1.10596,-0.388056 -0.65969,0 -1.10596,0.388056 -0.44626,0.388058 -0.7179,1.047748 -0.27164,0.6597 -0.38806,1.55223 -0.11641,0.87312 -0.11641,1.86267 0,0.98954 0.11641,1.88207 0.11642,0.87312 0.38806,1.53282 0.27164,0.65969 0.7179,1.04775 0.44627,0.38806 1.10596,0.38806 0.6597,0 1.10596,-0.38806 0.44627,-0.38806 0.71791,-1.04775 0.27163,-0.6597 0.38805,-1.53282 0.11642,-0.89253 0.11642,-1.88207 z"
             style="font-family:'Ubuntu Mono';-inkscape-font-specification:'Ubuntu Mono'"
             id="path59673" />
        </g>
        <path
           id="rect50998"
           style="fill:none;stroke:#000000;stroke-width:1.02411"
           d="m 153.72874,94.065712 h 18.97589 V 113.0416 h -18.97589 z" />
        <g
           aria-label="0"
           id="text51002"
           style="font-size:19.4028px;line-height:125%;letter-spacing:0px;word-spacing:0px;fill:#fcaf3e;stroke-width:0.504765px">
          <path
             d="m 164.31295,104.04843 q 0,0.50448 -0.31045,0.87313 -0.29104,0.36865 -0.77611,0.36865 -0.50447,0 -0.81492,-0.36865 -0.31044,-0.36865 -0.31044,-0.87313 0,-0.50447 0.31044,-0.89252 0.31045,-0.38806 0.81492,-0.38806 0.48507,0 0.77611,0.38806 0.31045,0.38805 0.31045,0.89252 z m -5.08354,0.21344 q 0,-3.02684 1.02835,-4.637274 1.04775,-1.629835 2.92982,-1.629835 1.90148,0 2.92983,1.629835 1.02834,1.610434 1.02834,4.637274 0,3.02683 -1.02834,4.65667 -1.02835,1.61043 -2.92983,1.61043 -1.88207,0 -2.92982,-1.61043 -1.02835,-1.62984 -1.02835,-4.65667 z m 6.28651,0 q 0,-0.98955 -0.11642,-1.86267 -0.11641,-0.89253 -0.38805,-1.55223 -0.27164,-0.65969 -0.71791,-1.047748 -0.44626,-0.388056 -1.10596,-0.388056 -0.65969,0 -1.10596,0.388056 -0.44626,0.388058 -0.7179,1.047748 -0.27164,0.6597 -0.38806,1.55223 -0.11641,0.87312 -0.11641,1.86267 0,0.98954 0.11641,1.88207 0.11642,0.87312 0.38806,1.53282 0.27164,0.65969 0.7179,1.04775 0.44627,0.38806 1.10596,0.38806 0.6597,0 1.10596,-0.38806 0.44627,-0.38806 0.71791,-1.04775 0.27164,-0.6597 0.38805,-1.53282 0.11642,-0.89253 0.11642,-1.88207 z"
             style="font-family:'Ubuntu Mono';-inkscape-font-specification:'Ubuntu Mono'"
             id="path59677" />
        </g>
        <path
           id="rect51004"
           style="fill:none;stroke:#000000;stroke-width:1.02411"
           d="m 172.70464,94.065712 h 18.97588 V 113.0416 h -18.97588 z" />
        <g
           aria-label="3"
           id="text51008"
           style="font-size:19.4028px;line-height:125%;letter-spacing:0px;word-spacing:0px;fill:#fcaf3e;stroke-width:0.504765px">
          <path
             d="m 181.42617,109.11257 q 1.53282,0 2.17311,-0.60149 0.6597,-0.62089 0.6597,-1.64924 0,-0.65969 -0.27164,-1.10596 -0.27164,-0.44626 -0.71791,-0.7179 -0.44626,-0.27164 -1.02834,-0.38806 -0.58209,-0.11642 -1.22238,-0.11642 h -0.40746 v -1.29998 h 0.56268 q 0.42686,0 0.87313,-0.0776 0.46566,-0.097 0.83432,-0.31045 0.38805,-0.23283 0.62089,-0.62089 0.23283,-0.38805 0.23283,-0.98954 0,-0.98954 -0.62089,-1.397003 -0.60149,-0.426861 -1.4164,-0.426861 -0.83432,0 -1.41641,0.252236 -0.58208,0.232834 -0.97014,0.485068 l -0.62089,-1.222374 q 0.40746,-0.291042 1.22238,-0.601487 0.83432,-0.329848 1.84327,-0.329848 0.95073,0 1.62983,0.232834 0.6791,0.232833 1.10596,0.659695 0.44626,0.426862 0.6597,1.008946 0.21343,0.562684 0.21343,1.241774 0,0.95074 -0.50448,1.61044 -0.48507,0.65969 -1.26118,1.00894 0.93134,0.27164 1.61043,1.06716 0.6791,0.77611 0.6791,2.0761 0,0.77611 -0.27164,1.45521 -0.25223,0.65969 -0.79551,1.14476 -0.52388,0.48507 -1.3776,0.75671 -0.83432,0.27164 -1.99849,0.27164 -0.44626,0 -0.93133,-0.0776 -0.46567,-0.0582 -0.87313,-0.17463 -0.40746,-0.097 -0.73731,-0.19402 -0.31044,-0.11642 -0.44626,-0.17463 l 0.31044,-1.3776 q 0.31045,0.15522 0.98955,0.36865 0.6791,0.21344 1.66864,0.21344 z"
             style="font-family:'Ubuntu Mono';-inkscape-font-specification:'Ubuntu Mono'"
             id="path59681" />
        </g>
        <path
           style="fill:none;fill-rule:evenodd;stroke:#555753;stroke-width:1.05833;stroke-linecap:butt;stroke-linejoin:miter;stroke-miterlimit:4;stroke-dasharray:none;stroke-opacity:1;marker-end:url(#TriangleOutL)"
           d="m 201.16846,103.55365 h 86.64177"
           id="path51010" />
        <g
           aria-label="yes"
           id="text51020"
           style="font-size:14.1111px;line-height:125%;letter-spacing:0px;word-spacing:0px;fill:none;stroke:#000000;stroke-width:0.264583px">
          <path
             d="m 318.79219,108.5913 q 0.15522,0.0706 0.39511,0.127 0.254,0.0706 0.49389,0.0706 0.77611,0 1.21355,-0.35278 0.43745,-0.33867 0.79022,-1.11478 -0.88899,-1.69333 -1.66511,-3.58422 -0.76199,-1.90499 -1.26999,-3.852326 h 1.41111 q 0.15522,0.634996 0.36688,1.368776 0.22578,0.73378 0.49389,1.50989 0.26811,0.77611 0.57856,1.55222 0.31044,0.77611 0.64911,1.49578 0.53622,-1.48167 0.93133,-2.93511 0.39511,-1.45345 0.74789,-2.991556 h 1.35467 q -0.508,2.074336 -1.12889,3.993446 -0.62089,1.90499 -1.34056,3.5701 -0.28222,0.635 -0.59266,1.08656 -0.29634,0.46567 -0.66323,0.762 -0.36688,0.29633 -0.83255,0.43744 -0.45156,0.14111 -1.03011,0.14111 -0.15522,0 -0.32456,-0.0282 -0.16933,-0.0141 -0.33866,-0.0564 -0.15522,-0.0282 -0.29634,-0.0706 -0.127,-0.0423 -0.18344,-0.0705 z"
             style="font-family:Ubuntu;-inkscape-font-specification:Ubuntu;fill:#000000;stroke:none"
             id="path59684" />
          <path
             d="m 326.25696,103.56775 q 0,-0.97366 0.28222,-1.69333 0.28222,-0.73378 0.74789,-1.21356 0.46566,-0.47977 1.07244,-0.719661 0.60678,-0.239889 1.24178,-0.239889 1.48166,0 2.27189,0.93133 0.79022,0.91722 0.79022,2.80811 0,0.0847 0,0.22578 0,0.127 -0.0141,0.23989 h -5.02356 q 0.0847,1.143 0.66323,1.73566 0.57855,0.59267 1.80622,0.59267 0.69144,0 1.15711,-0.11289 0.47977,-0.127 0.71966,-0.23989 l 0.18345,1.10067 q -0.23989,0.127 -0.84667,0.26811 -0.59266,0.14111 -1.35466,0.14111 -0.95956,0 -1.66511,-0.28222 -0.69145,-0.29634 -1.143,-0.80433 -0.45156,-0.508 -0.67734,-1.19945 -0.21166,-0.70555 -0.21166,-1.53811 z m 5.03766,-0.71966 q 0.0141,-0.889 -0.45155,-1.45345 -0.45156,-0.57855 -1.25589,-0.57855 -0.45156,0 -0.80434,0.18344 -0.33866,0.16933 -0.57855,0.45156 -0.23989,0.28222 -0.381,0.64911 -0.127,0.36689 -0.16933,0.74789 z"
             style="font-family:Ubuntu;-inkscape-font-specification:Ubuntu;fill:#000000;stroke:none"
             id="path59686" />
          <path
             d="m 336.2617,106.27708 q 0.80433,0 1.18533,-0.21166 0.39511,-0.21167 0.39511,-0.67734 0,-0.47977 -0.381,-0.762 -0.381,-0.28222 -1.25588,-0.635 -0.42334,-0.16933 -0.81845,-0.33866 -0.381,-0.18345 -0.66322,-0.42333 -0.28222,-0.23989 -0.45155,-0.57856 -0.16934,-0.33867 -0.16934,-0.83255 0,-0.97367 0.71967,-1.53811 0.71966,-0.57856 1.96144,-0.57856 0.31045,0 0.62089,0.04233 0.31044,0.02822 0.57855,0.08467 0.26812,0.04233 0.46567,0.09878 0.21167,0.05644 0.32456,0.09878 l -0.23989,1.12888 q -0.21167,-0.11289 -0.66322,-0.22577 -0.45156,-0.127 -1.08656,-0.127 -0.55033,0 -0.95955,0.22577 -0.40923,0.21167 -0.40923,0.67734 0,0.23989 0.0847,0.42333 0.0988,0.18344 0.28222,0.33867 0.19756,0.14111 0.47978,0.26811 0.28222,0.127 0.67733,0.26811 0.52211,0.19755 0.93134,0.39511 0.40922,0.18344 0.69144,0.43744 0.29633,0.254 0.45155,0.62089 0.15523,0.35278 0.15523,0.87489 0,1.016 -0.762,1.53811 -0.74789,0.52211 -2.14489,0.52211 -0.97367,0 -1.524,-0.16933 -0.55033,-0.15523 -0.74789,-0.23989 l 0.23989,-1.12889 q 0.22578,0.0847 0.71967,0.254 0.49389,0.16933 1.31233,0.16933 z"
             style="font-family:Ubuntu;-inkscape-font-specification:Ubuntu;fill:#000000;stroke:none"
             id="path59688" />
        </g>
        <path
           style="fill:none;fill-rule:evenodd;stroke:#8ae234;stroke-width:2.64583;stroke-linecap:round;stroke-linejoin:miter;stroke-miterlimit:4;stroke-dasharray:none;stroke-opacity:1"
           d="m 301.34733,104.74706 6.81326,4.08454 6.59995,-10.213614"
           id="path52128" />
        <path
           style="fill:none;fill-rule:evenodd;stroke:#555753;stroke-width:1.05833;stroke-linecap:butt;stroke-linejoin:miter;stroke-miterlimit:4;stroke-dasharray:none;stroke-opacity:1;marker-end:url(#TriangleOutL)"
           d="m 346.28519,103.55364 h 59.73225"
           id="path53186" />
        <g
           aria-label="calculate y"
           id="text53192"
           style="font-size:10.5833px;line-height:125%;letter-spacing:0px;word-spacing:0px;stroke-width:0.264583px">
          <path
             d="m 354.06215,90.404612 v 0.888832 q -0.40308,-0.222208 -0.81132,-0.330728 -0.40307,-0.113688 -0.81648,-0.113688 -0.92501,0 -1.4366,0.589109 -0.5116,0.583942 -0.5116,1.643306 0,1.059363 0.5116,1.648473 0.51159,0.583942 1.4366,0.583942 0.41341,0 0.81648,-0.108521 0.40824,-0.113687 0.81132,-0.335895 v 0.878496 q -0.39791,0.186035 -0.82682,0.279052 -0.42375,0.09302 -0.90434,0.09302 -1.30741,0 -2.07738,-0.821652 -0.76998,-0.821653 -0.76998,-2.216912 0,-1.41593 0.77514,-2.227247 0.78032,-0.811318 2.13423,-0.811318 0.43925,0 0.85783,0.09302 0.41858,0.08785 0.81132,0.268716 z"
             id="path59691" />
          <path
             d="m 358.34611,93.060772 q -1.15238,0 -1.5968,0.263549 -0.44441,0.263549 -0.44441,0.899167 0,0.506428 0.33073,0.80615 0.33589,0.294555 0.9095,0.294555 0.79064,0 1.26607,-0.558104 0.48059,-0.563271 0.48059,-1.493444 v -0.211873 z m 1.89652,-0.392739 v 3.302113 h -0.95084 V 95.09165 q -0.32556,0.527098 -0.81132,0.780311 -0.48576,0.248046 -1.18856,0.248046 -0.88883,0 -1.41593,-0.496092 -0.52193,-0.50126 -0.52193,-1.338415 0,-0.976682 0.65113,-1.472774 0.65628,-0.496092 1.95336,-0.496092 h 1.33325 v -0.09302 q 0,-0.656289 -0.43408,-1.012855 -0.42892,-0.361734 -1.20923,-0.361734 -0.49609,0 -0.96635,0.118855 -0.47025,0.118856 -0.90433,0.356567 v -0.878497 q 0.52193,-0.201537 1.01285,-0.299722 0.49093,-0.103353 0.95602,-0.103353 1.25573,0 1.87584,0.651121 0.62012,0.651121 0.62012,1.974034 z"
             id="path59693" />
          <path
             d="m 362.20116,87.929319 h 0.95084 v 8.040827 h -0.95084 z"
             id="path59695" />
          <path
             d="m 369.30665,90.404612 v 0.888832 q -0.40308,-0.222208 -0.81132,-0.330728 -0.40308,-0.113688 -0.81649,-0.113688 -0.925,0 -1.4366,0.589109 -0.51159,0.583942 -0.51159,1.643306 0,1.059363 0.51159,1.648473 0.5116,0.583942 1.4366,0.583942 0.41341,0 0.81649,-0.108521 0.40824,-0.113687 0.81132,-0.335895 v 0.878496 q -0.39791,0.186035 -0.82682,0.279052 -0.42375,0.09302 -0.90434,0.09302 -1.30741,0 -2.07738,-0.821652 -0.76998,-0.821653 -0.76998,-2.216912 0,-1.41593 0.77514,-2.227247 0.78032,-0.811318 2.13423,-0.811318 0.43925,0 0.85783,0.09302 0.41858,0.08785 0.81132,0.268716 z"
             id="path59697" />
          <path
             d="m 370.8621,93.686055 v -3.503651 h 0.95084 v 3.467478 q 0,0.821652 0.3204,1.235063 0.32039,0.408242 0.96118,0.408242 0.76997,0 1.21439,-0.490924 0.44958,-0.490925 0.44958,-1.338416 v -3.281443 h 0.95085 v 5.787742 h -0.95085 v -0.888832 q -0.34623,0.527098 -0.80615,0.78548 -0.45475,0.253213 -1.05936,0.253213 -0.99735,0 -1.51412,-0.620115 -0.51676,-0.620115 -0.51676,-1.813837 z m 2.39261,-3.643177 z"
             id="path59699" />
          <path
             d="m 377.66787,87.929319 h 0.95084 v 8.040827 h -0.95084 z"
             id="path59701" />
          <path
             d="m 383.23857,93.060772 q -1.15238,0 -1.5968,0.263549 -0.44442,0.263549 -0.44442,0.899167 0,0.506428 0.33073,0.80615 0.3359,0.294555 0.90951,0.294555 0.79064,0 1.26606,-0.558104 0.48059,-0.563271 0.48059,-1.493444 v -0.211873 z m 1.89652,-0.392739 v 3.302113 h -0.95085 V 95.09165 q -0.32556,0.527098 -0.81131,0.780311 -0.48576,0.248046 -1.18856,0.248046 -0.88883,0 -1.41593,-0.496092 -0.52193,-0.50126 -0.52193,-1.338415 0,-0.976682 0.65112,-1.472774 0.65629,-0.496092 1.95337,-0.496092 h 1.33324 v -0.09302 q 0,-0.656289 -0.43408,-1.012855 -0.42891,-0.361734 -1.20922,-0.361734 -0.49609,0 -0.96635,0.118855 -0.47025,0.118856 -0.90433,0.356567 v -0.878497 q 0.52193,-0.201537 1.01285,-0.299722 0.49093,-0.103353 0.95601,-0.103353 1.25574,0 1.87585,0.651121 0.62012,0.651121 0.62012,1.974034 z"
             id="path59703" />
          <path
             d="m 388.03413,88.539099 v 1.643305 h 1.95853 v 0.738971 h -1.95853 v 3.141917 q 0,0.707965 0.1912,0.909502 0.19637,0.201538 0.79065,0.201538 h 0.97668 v 0.795814 h -0.97668 q -1.10071,0 -1.51929,-0.408242 -0.41857,-0.41341 -0.41857,-1.498612 v -3.141917 h -0.69763 v -0.738971 h 0.69763 v -1.643305 z"
             id="path59705" />
          <path
             d="m 396.19381,92.838564 v 0.465087 h -4.37182 q 0.062,0.981849 0.58911,1.498612 0.53227,0.511595 1.47795,0.511595 0.54776,0 1.05936,-0.134359 0.51676,-0.134358 1.02319,-0.403075 v 0.899167 q -0.5116,0.217041 -1.04903,0.330729 -0.53743,0.113687 -1.09037,0.113687 -1.38492,0 -2.19624,-0.806149 -0.80615,-0.80615 -0.80615,-2.180739 0,-1.421097 0.76481,-2.253085 0.76998,-0.837156 2.07222,-0.837156 1.16788,0 1.84484,0.754474 0.68213,0.749306 0.68213,2.041212 z m -0.95085,-0.279051 q -0.0103,-0.780312 -0.43924,-1.245399 -0.42375,-0.465086 -1.12655,-0.465086 -0.79581,0 -1.2764,0.449584 -0.47542,0.449583 -0.54777,1.266068 z"
             id="path59707" />
          <path
             d="m 402.74636,96.507579 q -0.66146,1.11104 -1.08004,1.384924 -0.41341,0.279052 -1.05936,0.279052 h -0.7493 l 0.16019,-0.795814 h 0.54777 q 0.39791,0 0.67696,-0.217041 0.27905,-0.21704 0.62528,-0.84749 l 0.29456,-0.552937 -1.28157,-5.575869 h 1.00768 l 0.96118,4.433824 2.65616,-4.433824 h 0.99735 z"
             style="font-style:italic"
             id="path59709" />
        </g>
        <g
           aria-label="M = (x, y)"
           id="text54698"
           style="font-size:14.1111px;line-height:125%;letter-spacing:0px;word-spacing:0px;stroke-width:0.264583px">
          <path
             d="m 423.61105,105.86786 q -0.14111,-0.33867 -0.381,-0.86078 -0.22578,-0.52211 -0.49389,-1.12888 -0.26811,-0.60678 -0.57855,-1.24178 -0.29634,-0.64911 -0.56445,-1.21356 -0.26811,-0.57855 -0.508,-1.03011 -0.22578,-0.451551 -0.36689,-0.69144 -0.15522,1.66511 -0.254,3.61244 -0.0988,1.93322 -0.16933,3.90878 h -1.34055 q 0.0564,-1.27 0.127,-2.55411 0.0706,-1.29822 0.15522,-2.54 0.0988,-1.25589 0.19755,-2.441221 0.11289,-1.185332 0.23989,-2.243665 h 1.19944 q 0.381,0.620889 0.81845,1.467555 0.43744,0.846666 0.87489,1.778001 0.43744,0.91722 0.84666,1.84855 0.40922,0.91722 0.74789,1.67922 0.33867,-0.762 0.74789,-1.67922 0.40922,-0.93133 0.84667,-1.84855 0.43744,-0.931335 0.87488,-1.778001 0.43745,-0.846666 0.81845,-1.467555 h 1.19944 q 0.47978,4.727216 0.71967,9.778996 h -1.34056 q -0.0706,-1.97556 -0.16933,-3.90878 -0.0988,-1.94733 -0.254,-3.61244 -0.14111,0.239889 -0.381,0.69144 -0.22578,0.45156 -0.49389,1.03011 -0.26811,0.56445 -0.57855,1.21356 -0.29634,0.635 -0.56445,1.24178 -0.26811,0.60677 -0.508,1.12888 -0.22577,0.52211 -0.36689,0.86078 z"
             style="font-family:Ubuntu;-inkscape-font-specification:Ubuntu"
             id="path59474" />
          <path
             d="m 434.30723,103.94875 h 6.46288 v 1.11478 h -6.46288 z m 0,-3.00566 h 6.46288 v 1.11477 h -6.46288 z"
             style="font-family:Ubuntu;-inkscape-font-specification:Ubuntu"
             id="path59476" />
          <path
             d="m 447.19063,103.00331 q 0,1.80622 0.52211,3.34433 0.52212,1.53811 1.53811,2.85044 l -0.93133,0.635 q -1.10066,-1.34055 -1.778,-3.07622 -0.66322,-1.74978 -0.66322,-3.75355 0,-2.00378 0.66322,-3.739444 0.67734,-1.749776 1.778,-3.090331 l 0.93133,0.635 q -1.01599,1.312332 -1.53811,2.850442 -0.52211,1.538113 -0.52211,3.344333 z"
             style="font-family:Ubuntu;-inkscape-font-specification:Ubuntu"
             id="path59478" />
          <path
             d="m 453.80873,102.52353 q 0.59267,-0.71967 1.08656,-1.38289 0.508,-0.66322 0.87489,-1.255886 h 1.42522 q -0.60678,0.888996 -1.34056,1.806226 -0.71966,0.90311 -1.48166,1.7921 0.45155,0.889 0.90311,1.84856 0.45155,0.94544 0.77611,1.89089 h -1.36878 q -0.21167,-0.635 -0.55033,-1.36878 -0.32456,-0.73378 -0.64911,-1.41111 l -2.44122,2.77989 h -1.524 l 3.38666,-3.78178 -1.82033,-3.555996 h 1.45344 z"
             style="font-style:italic"
             id="path59480" />
          <path
             d="m 458.53595,105.61386 q 0.0141,0.11289 0.0141,0.22578 0,0.0988 0,0.21167 0,0.88899 -0.26811,1.74977 -0.254,0.87489 -0.70556,1.66511 l -1.016,-0.32455 q 0.35278,-0.71967 0.46567,-1.46756 0.11289,-0.73378 0.11289,-1.38289 0,-0.18344 -0.0141,-0.35277 0,-0.16934 -0.0141,-0.32456 z"
             style="font-family:Ubuntu;-inkscape-font-specification:Ubuntu"
             id="path59482" />
          <path
             d="m 466.72035,106.03719 q 0.53622,-0.84666 0.97366,-1.74977 0.43745,-0.91722 0.762,-1.74978 0.33867,-0.83255 0.56445,-1.524 0.22577,-0.70555 0.32455,-1.128886 h 1.36878 q -0.15522,0.536226 -0.43745,1.340556 -0.28222,0.79022 -0.69144,1.72155 -0.39511,0.91722 -0.90311,1.89089 -0.49389,0.95956 -1.08656,1.84855 -0.45155,0.66323 -0.90311,1.24178 -0.45155,0.59267 -0.97366,1.016 -0.508,0.43744 -1.12889,0.67733 -0.62089,0.254 -1.397,0.254 -0.39511,0 -0.73378,-0.0988 -0.33866,-0.0988 -0.49388,-0.21167 l 0.45155,-1.07244 q 0.14111,0.11288 0.381,0.18344 0.23989,0.0847 0.53622,0.0847 0.81845,0 1.38289,-0.39511 0.57855,-0.39512 1.08655,-1.04423 -0.52211,-1.70744 -0.86077,-3.59833 -0.32456,-1.89088 -0.39511,-3.838216 h 1.34055 q 0.0141,0.634996 0.0706,1.396996 0.0564,0.74789 0.15522,1.56634 0.11289,0.80433 0.254,1.62277 0.15522,0.81845 0.35278,1.56633 z"
             style="font-style:italic"
             id="path59484" />
          <path
             d="m 471.65921,103.00331 q 0,-1.80622 -0.52211,-3.344333 -0.52211,-1.53811 -1.53811,-2.850442 l 0.93133,-0.635 q 1.10067,1.340555 1.76389,3.090331 0.67733,1.735664 0.67733,3.739444 0,2.00377 -0.67733,3.75355 -0.66322,1.73567 -1.76389,3.07622 l -0.93133,-0.635 q 1.016,-1.31233 1.53811,-2.85044 0.52211,-1.53811 0.52211,-3.34433 z"
             style="font-family:Ubuntu;-inkscape-font-specification:Ubuntu"
             id="path59486" />
        </g>
      </g>
    </g>
  </g>
</svg>
